<svg width="542" height="233" viewBox="0 0 542 233" fill="none" xmlns="http://www.w3.org/2000/svg">
<g clip-path="url(#clip0)">
<rect x="1" y="1" width="540" height="231" rx="3" fill="#141125" stroke="#2A263F" stroke-width="2"/>
<path d="M134.362 -19.1866L91.1735 -31.845C86.9759 -33.076 82.4426 -31.8165 79.4804 -28.5957C76.5194 -25.3759 75.6417 -20.7521 77.2198 -16.6725L93.4436 25.3062L68.0596 62.4702C66.9883 64.0389 66.3444 65.8134 66.1342 67.6299C65.8602 69.9967 66.3228 72.4384 67.538 74.5946C69.6862 78.407 73.8108 80.6685 78.1798 80.4291L123.118 77.9707L150.618 113.597C153.291 117.061 157.699 118.706 161.987 117.842C166.276 116.977 169.702 113.752 170.825 109.524L182.375 66.025L224.754 50.8808C228.873 49.4091 231.8 45.7259 232.303 41.3793C232.806 37.0327 230.798 32.7784 227.124 30.4046L189.324 5.97909L188.015 -39.0079C187.889 -43.3811 185.289 -47.3024 181.311 -49.1246C177.334 -50.9468 172.667 -50.3508 169.273 -47.5895L134.362 -19.1866ZM166.522 12.6866C166.632 16.4677 168.595 19.9533 171.772 22.0056L195.087 37.0706L168.948 46.4117C165.386 47.6853 162.678 50.6289 161.707 54.2851L154.584 81.1139L137.621 59.143C135.309 56.1482 131.672 54.4823 127.894 54.6896L100.177 56.2056L115.832 33.2836C116.9 31.7213 117.548 29.9473 117.759 28.1228C117.971 26.2972 117.744 24.422 117.062 22.6584L107.056 -3.23385L133.695 4.5736C137.325 5.63824 141.246 4.84713 144.182 2.45971L165.715 -15.0602L166.522 12.6866Z" fill="url(#paint0_linear)"/>
<path opacity="0.55" d="M413.311 44.0845L398.973 31.1794C397.579 29.9248 395.597 29.5627 393.86 30.2455C392.123 30.9283 390.932 32.5377 390.789 34.3962L389.313 53.5178L372.663 63.0368C371.961 63.4387 371.385 63.9991 370.969 64.6564C370.427 65.513 370.155 66.5355 370.227 67.5889C370.353 69.4512 371.529 71.0873 373.259 71.8099L391.06 79.2445L395.108 98.0323C395.501 99.8588 396.899 101.311 398.714 101.779C400.529 102.247 402.446 101.649 403.659 100.237L416.136 85.7103L435.288 87.8033C437.149 88.0068 438.958 87.1401 439.953 85.5671C440.949 83.9941 440.958 81.9884 439.977 80.3932L429.888 63.9804L437.676 46.4857C438.434 44.7851 438.153 42.7968 436.954 41.3566C435.754 39.9163 433.843 39.2748 432.023 39.701L413.311 44.0845ZM419.85 62.3018C419.195 63.7721 419.31 65.4748 420.158 66.854L426.381 76.9771L414.569 75.6862C412.959 75.5106 411.371 76.1346 410.322 77.3556L402.627 86.3155L400.129 74.7284C399.789 73.149 398.692 71.8322 397.195 71.2075L386.216 66.6217L396.485 60.7505C397.185 60.3504 397.763 59.791 398.18 59.1308C398.599 58.4701 398.857 57.7089 398.919 56.9055L399.829 45.1115L408.673 53.0712C409.878 54.1562 411.538 54.5839 413.111 54.2155L424.653 51.5115L419.85 62.3018Z" fill="url(#paint1_linear)"/>
<path d="M476.716 121.527L431.75 104.852C427.379 103.23 422.467 104.211 419.079 107.382C415.692 110.552 414.415 115.363 415.789 119.789L429.91 165.329L400.163 202.592C398.908 204.165 398.091 205.987 397.733 207.888C397.265 210.364 397.575 212.976 398.707 215.345C400.706 219.532 404.922 222.235 409.584 222.318L457.535 223.177L484.115 262.881C486.699 266.741 491.262 268.816 495.884 268.233C500.507 267.651 504.388 264.511 505.897 260.136L521.411 215.126L567.585 202.403C572.073 201.167 575.458 197.505 576.316 192.958C577.174 188.41 575.356 183.767 571.627 180.98L533.265 152.303L535.221 104.735C535.412 100.111 532.94 95.7737 528.848 93.5454C524.756 91.3171 519.75 91.5874 515.937 94.2401L476.716 121.527ZM508.528 157.628C508.364 161.627 510.192 165.455 513.416 167.865L537.077 185.552L508.597 193.4C504.717 194.47 501.619 197.368 500.315 201.151L490.747 228.912L474.351 204.426C472.116 201.088 468.374 199.051 464.344 198.98L434.768 198.449L453.115 175.466C454.366 173.9 455.187 172.078 455.547 170.169C455.908 168.259 455.807 166.263 455.213 164.35L446.503 136.261L474.238 146.546C478.018 147.948 482.245 147.415 485.543 145.121L509.735 128.29L508.528 157.628Z" fill="url(#paint2_linear)"/>
<path d="M50.6015 220.632L72.5205 241.508C74.6506 243.537 77.7488 244.181 80.5122 243.168C83.2745 242.156 85.224 239.662 85.5376 236.737L88.7736 206.642L115.4 192.246C116.524 191.638 117.456 190.775 118.141 189.754C119.035 188.424 119.51 186.821 119.448 185.158C119.339 182.217 117.57 179.594 114.884 178.391L87.2611 166.013L81.7987 136.241C81.2677 133.347 79.1396 131.005 76.3095 130.2C73.4793 129.396 70.4377 130.268 68.463 132.45L48.1546 154.896L18.1527 150.891C15.2366 150.502 12.352 151.802 10.7119 154.245C9.07181 156.689 8.96134 159.851 10.4265 162.402L25.4982 188.652L12.4184 215.95C11.1466 218.603 11.4924 221.748 13.3089 224.063C15.1253 226.379 18.0991 227.46 20.9789 226.855L50.6015 220.632ZM41.1967 191.668C42.2963 189.374 42.1962 186.685 40.9294 184.479L31.6333 168.289L50.1385 170.759C52.6603 171.095 55.1863 170.17 56.893 168.283L69.4187 154.439L72.7894 172.8C73.2489 175.303 74.9099 177.42 77.232 178.46L94.2697 186.094L77.847 194.974C76.7276 195.579 75.7934 196.44 75.1049 197.465C74.4161 198.492 73.9734 199.682 73.8378 200.947L71.8414 219.509L58.3218 206.633C56.4796 204.878 53.8915 204.143 51.4011 204.666L33.1293 208.505L41.1967 191.668Z" fill="url(#paint3_linear)"/>
<rect x="328" y="181" width="24" height="14" rx="3" fill="#2A263F"/>
<path d="M345 186.077C345 184.378 343.765 183 342.242 183C341.317 183 340.501 183.509 340 184.288C339.499 183.509 338.683 183 337.759 183C336.235 183 335 184.377 335 186.077C335 186.318 335.027 186.551 335.074 186.776C335.457 189.431 338.103 192.231 340 193C341.896 192.231 344.543 189.431 344.925 186.776C344.973 186.551 345 186.318 345 186.077Z" fill="#BCB8D0"/>
<rect x="300" y="181" width="24" height="14" rx="3" fill="#2A263F"/>
<path d="M317 191.889C317 192.503 316.503 193 315.889 193H308.111C307.497 193 307 192.503 307 191.889V184.111C307 183.497 307.497 183 308.111 183H315.889C316.503 183 317 183.497 317 184.111V191.889Z" fill="#BCB8D0"/>
<path d="M315.389 185.778L313.389 184.111V185.222H311.167C309.633 185.222 308.389 186.466 308.389 188C308.389 188.393 308.472 188.766 308.619 189.105L309.536 188.341C309.512 188.231 309.5 188.117 309.5 188C309.5 187.079 310.246 186.333 311.167 186.333H313.389V187.444L315.389 185.778ZM315.382 186.895L314.465 187.659C314.488 187.769 314.5 187.883 314.5 188C314.5 188.92 313.754 189.667 312.834 189.667H310.611V188.556L308.611 190.222L310.611 191.889V190.778H312.834C314.367 190.778 315.611 189.534 315.611 188C315.611 187.607 315.529 187.234 315.382 186.895Z" fill="#2A263F"/>
<rect x="272" y="181" width="24" height="14" rx="3" fill="#2A263F"/>
<path d="M289 191.889C289 192.503 288.503 193 287.889 193H280.111C279.498 193 279 192.503 279 191.889V184.111C279 183.498 279.498 183 280.111 183H287.889C288.503 183 289 183.498 289 184.111V191.889Z" fill="#BCB8D0"/>
<path d="M282.598 187.366C282.751 186.979 282.941 186.571 283.202 186.215C282.875 185.796 282.431 185.5 281.778 185.5H280.944V186.611H281.778C282.141 186.611 282.366 186.86 282.598 187.366ZM284.411 188.873C284.278 189.238 284.117 189.644 283.897 190.02C284.199 190.311 284.588 190.5 285.111 190.5H285.944V189.389H285.111C284.811 189.389 284.605 189.217 284.411 188.873Z" fill="#2A263F"/>
<path d="M281.778 190.5H280.944V189.389H281.778C282.301 189.389 282.539 188.884 282.921 187.813C283.289 186.782 283.747 185.5 285.111 185.5H285.944V186.611H285.111C284.588 186.611 284.35 187.116 283.968 188.187C283.6 189.218 283.142 190.5 281.778 190.5Z" fill="#2A263F"/>
<path d="M287.389 186.056L285.389 184.389V187.722L287.389 186.056ZM287.389 189.944L285.389 188.278V191.611L287.389 189.944Z" fill="#2A263F"/>
<rect x="244" y="181" width="24" height="14" rx="3" fill="#2A263F"/>
<path d="M260.091 183H251.909C251.407 183 251 183.407 251 183.909V192.091C251 192.593 251.407 193 251.909 193H260.091C260.593 193 261 192.593 261 192.091V183.909C261 183.407 260.593 183 260.091 183ZM258.273 189.818C258.273 190.069 258.069 190.273 257.818 190.273H254.182C253.931 190.273 253.727 190.069 253.727 189.818V186.182C253.727 185.931 253.931 185.727 254.182 185.727H257.818C258.069 185.727 258.273 185.931 258.273 186.182V189.818Z" fill="#BCB8D0"/>
<rect x="215" y="181" width="25" height="14" rx="3" fill="#2A263F"/>
<path d="M222.909 183H231.091C231.593 183 232 183.407 232 183.909V192.091C232 192.593 231.593 193 231.091 193H222.909C222.407 193 222 192.593 222 192.091V183.909C222 183.407 222.407 183 222.909 183ZM228.364 189.818C228.364 190.069 228.567 190.273 228.818 190.273C229.069 190.273 229.273 190.069 229.273 189.818V186.182C229.273 185.931 229.069 185.727 228.818 185.727C228.567 185.727 228.364 185.931 228.364 186.182V189.818ZM224.727 190.042C224.727 190.248 224.873 190.332 225.051 190.229L227.762 188.25C227.953 188.1 227.959 187.908 227.755 187.745L225.051 185.771C224.873 185.669 224.727 185.753 224.727 185.958V190.042Z" fill="#BCB8D0"/>
<rect x="187" y="181" width="24" height="14" rx="3" fill="#2A263F"/>
<path d="M202.889 183H195.111C194.498 183 194 183.498 194 184.111V191.889C194 192.502 194.498 193 195.111 193H202.889C203.502 193 204 192.502 204 191.889V184.111C204 183.498 203.502 183 202.889 183ZM201.087 188.229L197.789 190.179C197.592 190.295 197.333 190.165 197.333 189.95V186.05C197.333 185.835 197.592 185.705 197.789 185.821L201.086 187.771C201.267 187.878 201.267 188.122 201.087 188.229Z" fill="#BCB8D0"/>
<rect x="159" y="181" width="24" height="14" rx="3" fill="#2A263F"/>
<path d="M175.091 183H166.909C166.407 183 166 183.407 166 183.909V192.091C166 192.593 166.407 193 166.909 193H175.091C175.593 193 176 192.593 176 192.091V183.909C176 183.407 175.593 183 175.091 183ZM169.636 189.818C169.636 190.069 169.433 190.273 169.182 190.273C168.931 190.273 168.727 190.069 168.727 189.818V186.182C168.727 185.931 168.931 185.727 169.182 185.727C169.433 185.727 169.636 185.931 169.636 186.182V189.818ZM173.273 190.042C173.273 190.248 173.127 190.332 172.949 190.229L170.238 188.25C170.047 188.1 170.041 187.908 170.245 187.745L172.949 185.771C173.127 185.669 173.273 185.753 173.273 185.958V190.042Z" fill="#BCB8D0"/>
<path d="M160 37H381C383.761 37 386 39.2386 386 42V172C386 174.761 383.761 177 381 177H160V37Z" fill="#17132D"/>
<rect x="172" y="46" width="203" height="122" rx="4" fill="#2A263F"/>
<path d="M157 41C157 38.7909 158.791 37 161 37V177C158.791 177 157 175.209 157 173V41Z" fill="#2A263F"/>
</g>
<defs>
<linearGradient id="paint0_linear" x1="157" y1="84" x2="157.639" y2="-1.45134" gradientUnits="userSpaceOnUse">
<stop stop-color="#3CC552"/>
<stop offset="0.623158" stop-color="#488F78" stop-opacity="0.635417"/>
<stop offset="1" stop-color="#5D32BA" stop-opacity="0"/>
</linearGradient>
<linearGradient id="paint1_linear" x1="422.162" y1="69.9592" x2="379.238" y2="61.0766" gradientUnits="userSpaceOnUse">
<stop stop-color="#1995DB"/>
<stop offset="1" stop-color="#1995DB" stop-opacity="0"/>
</linearGradient>
<linearGradient id="paint2_linear" x1="516.171" y1="205.207" x2="441.061" y2="131.048" gradientUnits="userSpaceOnUse">
<stop offset="0.164583" stop-color="#E29438" stop-opacity="0"/>
<stop offset="0.727083" stop-color="#E29438"/>
</linearGradient>
<linearGradient id="paint3_linear" x1="67.5204" y1="141.648" x2="46" y2="232" gradientUnits="userSpaceOnUse">
<stop stop-color="#5D32BA"/>
<stop offset="1" stop-color="#5D32BA" stop-opacity="0"/>
</linearGradient>
<clipPath id="clip0">
<rect width="542" height="233" fill="white"/>
</clipPath>
</defs>
</svg>
