<svg width="1544" height="776" viewBox="0 0 1544 776" fill="none" xmlns="http://www.w3.org/2000/svg">
<g clip-path="url(#clip0)">
<path d="M117.5 250C118.328 250 119 249.328 119 248.5C119 247.672 118.328 247 117.5 247C116.672 247 116 247.672 116 248.5C116 249.328 116.672 250 117.5 250Z" fill="#2A263F"/>
<path d="M117.5 276C118.328 276 119 275.328 119 274.5C119 273.672 118.328 273 117.5 273C116.672 273 116 273.672 116 274.5C116 275.328 116.672 276 117.5 276Z" fill="#2A263F"/>
<path d="M117.5 302C118.328 302 119 301.328 119 300.5C119 299.672 118.328 299 117.5 299C116.672 299 116 299.672 116 300.5C116 301.328 116.672 302 117.5 302Z" fill="#2A263F"/>
<path d="M117.5 328C118.328 328 119 327.328 119 326.5C119 325.672 118.328 325 117.5 325C116.672 325 116 325.672 116 326.5C116 327.328 116.672 328 117.5 328Z" fill="#2A263F"/>
<path d="M117.5 354C118.328 354 119 353.328 119 352.5C119 351.672 118.328 351 117.5 351C116.672 351 116 351.672 116 352.5C116 353.328 116.672 354 117.5 354Z" fill="#2A263F"/>
<path d="M117.5 380C118.328 380 119 379.328 119 378.5C119 377.672 118.328 377 117.5 377C116.672 377 116 377.672 116 378.5C116 379.328 116.672 380 117.5 380Z" fill="#2A263F"/>
<path d="M151.5 250C152.328 250 153 249.328 153 248.5C153 247.672 152.328 247 151.5 247C150.672 247 150 247.672 150 248.5C150 249.328 150.672 250 151.5 250Z" fill="#2A263F"/>
<path d="M151.5 276C152.328 276 153 275.328 153 274.5C153 273.672 152.328 273 151.5 273C150.672 273 150 273.672 150 274.5C150 275.328 150.672 276 151.5 276Z" fill="#2A263F"/>
<path d="M151.5 302C152.328 302 153 301.328 153 300.5C153 299.672 152.328 299 151.5 299C150.672 299 150 299.672 150 300.5C150 301.328 150.672 302 151.5 302Z" fill="#2A263F"/>
<path d="M151.5 328C152.328 328 153 327.328 153 326.5C153 325.672 152.328 325 151.5 325C150.672 325 150 325.672 150 326.5C150 327.328 150.672 328 151.5 328Z" fill="#2A263F"/>
<path d="M151.5 354C152.328 354 153 353.328 153 352.5C153 351.672 152.328 351 151.5 351C150.672 351 150 351.672 150 352.5C150 353.328 150.672 354 151.5 354Z" fill="#2A263F"/>
<path d="M151.5 380C152.328 380 153 379.328 153 378.5C153 377.672 152.328 377 151.5 377C150.672 377 150 377.672 150 378.5C150 379.328 150.672 380 151.5 380Z" fill="#2A263F"/>
<path d="M185.5 250C186.328 250 187 249.328 187 248.5C187 247.672 186.328 247 185.5 247C184.672 247 184 247.672 184 248.5C184 249.328 184.672 250 185.5 250Z" fill="#2A263F"/>
<path d="M185.5 276C186.328 276 187 275.328 187 274.5C187 273.672 186.328 273 185.5 273C184.672 273 184 273.672 184 274.5C184 275.328 184.672 276 185.5 276Z" fill="#2A263F"/>
<path d="M185.5 302C186.328 302 187 301.328 187 300.5C187 299.672 186.328 299 185.5 299C184.672 299 184 299.672 184 300.5C184 301.328 184.672 302 185.5 302Z" fill="#2A263F"/>
<path d="M185.5 328C186.328 328 187 327.328 187 326.5C187 325.672 186.328 325 185.5 325C184.672 325 184 325.672 184 326.5C184 327.328 184.672 328 185.5 328Z" fill="#2A263F"/>
<path d="M185.5 354C186.328 354 187 353.328 187 352.5C187 351.672 186.328 351 185.5 351C184.672 351 184 351.672 184 352.5C184 353.328 184.672 354 185.5 354Z" fill="#2A263F"/>
<path d="M185.5 380C186.328 380 187 379.328 187 378.5C187 377.672 186.328 377 185.5 377C184.672 377 184 377.672 184 378.5C184 379.328 184.672 380 185.5 380Z" fill="#2A263F"/>
<path d="M219.5 250C220.328 250 221 249.328 221 248.5C221 247.672 220.328 247 219.5 247C218.672 247 218 247.672 218 248.5C218 249.328 218.672 250 219.5 250Z" fill="#2A263F"/>
<path d="M219.5 276C220.328 276 221 275.328 221 274.5C221 273.672 220.328 273 219.5 273C218.672 273 218 273.672 218 274.5C218 275.328 218.672 276 219.5 276Z" fill="#2A263F"/>
<path d="M219.5 302C220.328 302 221 301.328 221 300.5C221 299.672 220.328 299 219.5 299C218.672 299 218 299.672 218 300.5C218 301.328 218.672 302 219.5 302Z" fill="#2A263F"/>
<path d="M219.5 328C220.328 328 221 327.328 221 326.5C221 325.672 220.328 325 219.5 325C218.672 325 218 325.672 218 326.5C218 327.328 218.672 328 219.5 328Z" fill="#2A263F"/>
<path d="M219.5 354C220.328 354 221 353.328 221 352.5C221 351.672 220.328 351 219.5 351C218.672 351 218 351.672 218 352.5C218 353.328 218.672 354 219.5 354Z" fill="#2A263F"/>
<path d="M219.5 380C220.328 380 221 379.328 221 378.5C221 377.672 220.328 377 219.5 377C218.672 377 218 377.672 218 378.5C218 379.328 218.672 380 219.5 380Z" fill="#2A263F"/>
<path d="M253.5 250C254.328 250 255 249.328 255 248.5C255 247.672 254.328 247 253.5 247C252.672 247 252 247.672 252 248.5C252 249.328 252.672 250 253.5 250Z" fill="#2A263F"/>
<path d="M253.5 276C254.328 276 255 275.328 255 274.5C255 273.672 254.328 273 253.5 273C252.672 273 252 273.672 252 274.5C252 275.328 252.672 276 253.5 276Z" fill="#2A263F"/>
<path d="M253.5 302C254.328 302 255 301.328 255 300.5C255 299.672 254.328 299 253.5 299C252.672 299 252 299.672 252 300.5C252 301.328 252.672 302 253.5 302Z" fill="#2A263F"/>
<path d="M253.5 328C254.328 328 255 327.328 255 326.5C255 325.672 254.328 325 253.5 325C252.672 325 252 325.672 252 326.5C252 327.328 252.672 328 253.5 328Z" fill="#2A263F"/>
<path d="M253.5 354C254.328 354 255 353.328 255 352.5C255 351.672 254.328 351 253.5 351C252.672 351 252 351.672 252 352.5C252 353.328 252.672 354 253.5 354Z" fill="#2A263F"/>
<path d="M253.5 380C254.328 380 255 379.328 255 378.5C255 377.672 254.328 377 253.5 377C252.672 377 252 377.672 252 378.5C252 379.328 252.672 380 253.5 380Z" fill="#2A263F"/>
<path d="M287.5 250C288.328 250 289 249.328 289 248.5C289 247.672 288.328 247 287.5 247C286.672 247 286 247.672 286 248.5C286 249.328 286.672 250 287.5 250Z" fill="#2A263F"/>
<path d="M287.5 276C288.328 276 289 275.328 289 274.5C289 273.672 288.328 273 287.5 273C286.672 273 286 273.672 286 274.5C286 275.328 286.672 276 287.5 276Z" fill="#2A263F"/>
<path d="M287.5 302C288.328 302 289 301.328 289 300.5C289 299.672 288.328 299 287.5 299C286.672 299 286 299.672 286 300.5C286 301.328 286.672 302 287.5 302Z" fill="#2A263F"/>
<path d="M287.5 328C288.328 328 289 327.328 289 326.5C289 325.672 288.328 325 287.5 325C286.672 325 286 325.672 286 326.5C286 327.328 286.672 328 287.5 328Z" fill="#2A263F"/>
<path d="M287.5 354C288.328 354 289 353.328 289 352.5C289 351.672 288.328 351 287.5 351C286.672 351 286 351.672 286 352.5C286 353.328 286.672 354 287.5 354Z" fill="#2A263F"/>
<path d="M287.5 380C288.328 380 289 379.328 289 378.5C289 377.672 288.328 377 287.5 377C286.672 377 286 377.672 286 378.5C286 379.328 286.672 380 287.5 380Z" fill="#2A263F"/>
<path d="M321.5 250C322.328 250 323 249.328 323 248.5C323 247.672 322.328 247 321.5 247C320.672 247 320 247.672 320 248.5C320 249.328 320.672 250 321.5 250Z" fill="#2A263F"/>
<path d="M321.5 276C322.328 276 323 275.328 323 274.5C323 273.672 322.328 273 321.5 273C320.672 273 320 273.672 320 274.5C320 275.328 320.672 276 321.5 276Z" fill="#2A263F"/>
<path d="M321.5 302C322.328 302 323 301.328 323 300.5C323 299.672 322.328 299 321.5 299C320.672 299 320 299.672 320 300.5C320 301.328 320.672 302 321.5 302Z" fill="#2A263F"/>
<path d="M321.5 328C322.328 328 323 327.328 323 326.5C323 325.672 322.328 325 321.5 325C320.672 325 320 325.672 320 326.5C320 327.328 320.672 328 321.5 328Z" fill="#2A263F"/>
<path d="M321.5 354C322.328 354 323 353.328 323 352.5C323 351.672 322.328 351 321.5 351C320.672 351 320 351.672 320 352.5C320 353.328 320.672 354 321.5 354Z" fill="#2A263F"/>
<path d="M321.5 380C322.328 380 323 379.328 323 378.5C323 377.672 322.328 377 321.5 377C320.672 377 320 377.672 320 378.5C320 379.328 320.672 380 321.5 380Z" fill="#2A263F"/>
<path d="M355.5 250C356.328 250 357 249.328 357 248.5C357 247.672 356.328 247 355.5 247C354.672 247 354 247.672 354 248.5C354 249.328 354.672 250 355.5 250Z" fill="#2A263F"/>
<path d="M355.5 276C356.328 276 357 275.328 357 274.5C357 273.672 356.328 273 355.5 273C354.672 273 354 273.672 354 274.5C354 275.328 354.672 276 355.5 276Z" fill="#2A263F"/>
<path d="M355.5 302C356.328 302 357 301.328 357 300.5C357 299.672 356.328 299 355.5 299C354.672 299 354 299.672 354 300.5C354 301.328 354.672 302 355.5 302Z" fill="#2A263F"/>
<path d="M355.5 328C356.328 328 357 327.328 357 326.5C357 325.672 356.328 325 355.5 325C354.672 325 354 325.672 354 326.5C354 327.328 354.672 328 355.5 328Z" fill="#2A263F"/>
<path d="M355.5 354C356.328 354 357 353.328 357 352.5C357 351.672 356.328 351 355.5 351C354.672 351 354 351.672 354 352.5C354 353.328 354.672 354 355.5 354Z" fill="#2A263F"/>
<path d="M355.5 380C356.328 380 357 379.328 357 378.5C357 377.672 356.328 377 355.5 377C354.672 377 354 377.672 354 378.5C354 379.328 354.672 380 355.5 380Z" fill="#2A263F"/>
<path d="M1051.5 593C1052.33 593 1053 592.328 1053 591.5C1053 590.672 1052.33 590 1051.5 590C1050.67 590 1050 590.672 1050 591.5C1050 592.328 1050.67 593 1051.5 593Z" fill="#2A263F"/>
<path d="M1051.5 619C1052.33 619 1053 618.328 1053 617.5C1053 616.672 1052.33 616 1051.5 616C1050.67 616 1050 616.672 1050 617.5C1050 618.328 1050.67 619 1051.5 619Z" fill="#2A263F"/>
<path d="M1051.5 645C1052.33 645 1053 644.328 1053 643.5C1053 642.672 1052.33 642 1051.5 642C1050.67 642 1050 642.672 1050 643.5C1050 644.328 1050.67 645 1051.5 645Z" fill="#2A263F"/>
<path d="M1051.5 671C1052.33 671 1053 670.328 1053 669.5C1053 668.672 1052.33 668 1051.5 668C1050.67 668 1050 668.672 1050 669.5C1050 670.328 1050.67 671 1051.5 671Z" fill="#2A263F"/>
<path d="M1051.5 697C1052.33 697 1053 696.328 1053 695.5C1053 694.672 1052.33 694 1051.5 694C1050.67 694 1050 694.672 1050 695.5C1050 696.328 1050.67 697 1051.5 697Z" fill="#2A263F"/>
<path d="M1051.5 723C1052.33 723 1053 722.328 1053 721.5C1053 720.672 1052.33 720 1051.5 720C1050.67 720 1050 720.672 1050 721.5C1050 722.328 1050.67 723 1051.5 723Z" fill="#2A263F"/>
<path d="M1085.5 593C1086.33 593 1087 592.328 1087 591.5C1087 590.672 1086.33 590 1085.5 590C1084.67 590 1084 590.672 1084 591.5C1084 592.328 1084.67 593 1085.5 593Z" fill="#2A263F"/>
<path d="M1085.5 619C1086.33 619 1087 618.328 1087 617.5C1087 616.672 1086.33 616 1085.5 616C1084.67 616 1084 616.672 1084 617.5C1084 618.328 1084.67 619 1085.5 619Z" fill="#2A263F"/>
<path d="M1085.5 645C1086.33 645 1087 644.328 1087 643.5C1087 642.672 1086.33 642 1085.5 642C1084.67 642 1084 642.672 1084 643.5C1084 644.328 1084.67 645 1085.5 645Z" fill="#2A263F"/>
<path d="M1085.5 671C1086.33 671 1087 670.328 1087 669.5C1087 668.672 1086.33 668 1085.5 668C1084.67 668 1084 668.672 1084 669.5C1084 670.328 1084.67 671 1085.5 671Z" fill="#2A263F"/>
<path d="M1085.5 697C1086.33 697 1087 696.328 1087 695.5C1087 694.672 1086.33 694 1085.5 694C1084.67 694 1084 694.672 1084 695.5C1084 696.328 1084.67 697 1085.5 697Z" fill="#2A263F"/>
<path d="M1085.5 723C1086.33 723 1087 722.328 1087 721.5C1087 720.672 1086.33 720 1085.5 720C1084.67 720 1084 720.672 1084 721.5C1084 722.328 1084.67 723 1085.5 723Z" fill="#2A263F"/>
<path d="M1119.5 593C1120.33 593 1121 592.328 1121 591.5C1121 590.672 1120.33 590 1119.5 590C1118.67 590 1118 590.672 1118 591.5C1118 592.328 1118.67 593 1119.5 593Z" fill="#2A263F"/>
<path d="M1119.5 619C1120.33 619 1121 618.328 1121 617.5C1121 616.672 1120.33 616 1119.5 616C1118.67 616 1118 616.672 1118 617.5C1118 618.328 1118.67 619 1119.5 619Z" fill="#2A263F"/>
<path d="M1119.5 645C1120.33 645 1121 644.328 1121 643.5C1121 642.672 1120.33 642 1119.5 642C1118.67 642 1118 642.672 1118 643.5C1118 644.328 1118.67 645 1119.5 645Z" fill="#2A263F"/>
<path d="M1119.5 671C1120.33 671 1121 670.328 1121 669.5C1121 668.672 1120.33 668 1119.5 668C1118.67 668 1118 668.672 1118 669.5C1118 670.328 1118.67 671 1119.5 671Z" fill="#2A263F"/>
<path d="M1119.5 697C1120.33 697 1121 696.328 1121 695.5C1121 694.672 1120.33 694 1119.5 694C1118.67 694 1118 694.672 1118 695.5C1118 696.328 1118.67 697 1119.5 697Z" fill="#2A263F"/>
<path d="M1119.5 723C1120.33 723 1121 722.328 1121 721.5C1121 720.672 1120.33 720 1119.5 720C1118.67 720 1118 720.672 1118 721.5C1118 722.328 1118.67 723 1119.5 723Z" fill="#2A263F"/>
<path d="M1153.5 593C1154.33 593 1155 592.328 1155 591.5C1155 590.672 1154.33 590 1153.5 590C1152.67 590 1152 590.672 1152 591.5C1152 592.328 1152.67 593 1153.5 593Z" fill="#2A263F"/>
<path d="M1153.5 619C1154.33 619 1155 618.328 1155 617.5C1155 616.672 1154.33 616 1153.5 616C1152.67 616 1152 616.672 1152 617.5C1152 618.328 1152.67 619 1153.5 619Z" fill="#2A263F"/>
<path d="M1153.5 645C1154.33 645 1155 644.328 1155 643.5C1155 642.672 1154.33 642 1153.5 642C1152.67 642 1152 642.672 1152 643.5C1152 644.328 1152.67 645 1153.5 645Z" fill="#2A263F"/>
<path d="M1153.5 671C1154.33 671 1155 670.328 1155 669.5C1155 668.672 1154.33 668 1153.5 668C1152.67 668 1152 668.672 1152 669.5C1152 670.328 1152.67 671 1153.5 671Z" fill="#2A263F"/>
<path d="M1153.5 697C1154.33 697 1155 696.328 1155 695.5C1155 694.672 1154.33 694 1153.5 694C1152.67 694 1152 694.672 1152 695.5C1152 696.328 1152.67 697 1153.5 697Z" fill="#2A263F"/>
<path d="M1153.5 723C1154.33 723 1155 722.328 1155 721.5C1155 720.672 1154.33 720 1153.5 720C1152.67 720 1152 720.672 1152 721.5C1152 722.328 1152.67 723 1153.5 723Z" fill="#2A263F"/>
<path d="M1187.5 593C1188.33 593 1189 592.328 1189 591.5C1189 590.672 1188.33 590 1187.5 590C1186.67 590 1186 590.672 1186 591.5C1186 592.328 1186.67 593 1187.5 593Z" fill="#2A263F"/>
<path d="M1187.5 619C1188.33 619 1189 618.328 1189 617.5C1189 616.672 1188.33 616 1187.5 616C1186.67 616 1186 616.672 1186 617.5C1186 618.328 1186.67 619 1187.5 619Z" fill="#2A263F"/>
<path d="M1187.5 645C1188.33 645 1189 644.328 1189 643.5C1189 642.672 1188.33 642 1187.5 642C1186.67 642 1186 642.672 1186 643.5C1186 644.328 1186.67 645 1187.5 645Z" fill="#2A263F"/>
<path d="M1187.5 671C1188.33 671 1189 670.328 1189 669.5C1189 668.672 1188.33 668 1187.5 668C1186.67 668 1186 668.672 1186 669.5C1186 670.328 1186.67 671 1187.5 671Z" fill="#2A263F"/>
<path d="M1187.5 697C1188.33 697 1189 696.328 1189 695.5C1189 694.672 1188.33 694 1187.5 694C1186.67 694 1186 694.672 1186 695.5C1186 696.328 1186.67 697 1187.5 697Z" fill="#2A263F"/>
<path d="M1187.5 723C1188.33 723 1189 722.328 1189 721.5C1189 720.672 1188.33 720 1187.5 720C1186.67 720 1186 720.672 1186 721.5C1186 722.328 1186.67 723 1187.5 723Z" fill="#2A263F"/>
<path d="M1221.5 593C1222.33 593 1223 592.328 1223 591.5C1223 590.672 1222.33 590 1221.5 590C1220.67 590 1220 590.672 1220 591.5C1220 592.328 1220.67 593 1221.5 593Z" fill="#2A263F"/>
<path d="M1221.5 619C1222.33 619 1223 618.328 1223 617.5C1223 616.672 1222.33 616 1221.5 616C1220.67 616 1220 616.672 1220 617.5C1220 618.328 1220.67 619 1221.5 619Z" fill="#2A263F"/>
<path d="M1221.5 645C1222.33 645 1223 644.328 1223 643.5C1223 642.672 1222.33 642 1221.5 642C1220.67 642 1220 642.672 1220 643.5C1220 644.328 1220.67 645 1221.5 645Z" fill="#2A263F"/>
<path d="M1221.5 671C1222.33 671 1223 670.328 1223 669.5C1223 668.672 1222.33 668 1221.5 668C1220.67 668 1220 668.672 1220 669.5C1220 670.328 1220.67 671 1221.5 671Z" fill="#2A263F"/>
<path d="M1221.5 697C1222.33 697 1223 696.328 1223 695.5C1223 694.672 1222.33 694 1221.5 694C1220.67 694 1220 694.672 1220 695.5C1220 696.328 1220.67 697 1221.5 697Z" fill="#2A263F"/>
<path d="M1221.5 723C1222.33 723 1223 722.328 1223 721.5C1223 720.672 1222.33 720 1221.5 720C1220.67 720 1220 720.672 1220 721.5C1220 722.328 1220.67 723 1221.5 723Z" fill="#2A263F"/>
<path d="M1255.5 593C1256.33 593 1257 592.328 1257 591.5C1257 590.672 1256.33 590 1255.5 590C1254.67 590 1254 590.672 1254 591.5C1254 592.328 1254.67 593 1255.5 593Z" fill="#2A263F"/>
<path d="M1255.5 619C1256.33 619 1257 618.328 1257 617.5C1257 616.672 1256.33 616 1255.5 616C1254.67 616 1254 616.672 1254 617.5C1254 618.328 1254.67 619 1255.5 619Z" fill="#2A263F"/>
<path d="M1255.5 645C1256.33 645 1257 644.328 1257 643.5C1257 642.672 1256.33 642 1255.5 642C1254.67 642 1254 642.672 1254 643.5C1254 644.328 1254.67 645 1255.5 645Z" fill="#2A263F"/>
<path d="M1255.5 671C1256.33 671 1257 670.328 1257 669.5C1257 668.672 1256.33 668 1255.5 668C1254.67 668 1254 668.672 1254 669.5C1254 670.328 1254.67 671 1255.5 671Z" fill="#2A263F"/>
<path d="M1255.5 697C1256.33 697 1257 696.328 1257 695.5C1257 694.672 1256.33 694 1255.5 694C1254.67 694 1254 694.672 1254 695.5C1254 696.328 1254.67 697 1255.5 697Z" fill="#2A263F"/>
<path d="M1255.5 723C1256.33 723 1257 722.328 1257 721.5C1257 720.672 1256.33 720 1255.5 720C1254.67 720 1254 720.672 1254 721.5C1254 722.328 1254.67 723 1255.5 723Z" fill="#2A263F"/>
<path d="M1289.5 593C1290.33 593 1291 592.328 1291 591.5C1291 590.672 1290.33 590 1289.5 590C1288.67 590 1288 590.672 1288 591.5C1288 592.328 1288.67 593 1289.5 593Z" fill="#2A263F"/>
<path d="M1289.5 619C1290.33 619 1291 618.328 1291 617.5C1291 616.672 1290.33 616 1289.5 616C1288.67 616 1288 616.672 1288 617.5C1288 618.328 1288.67 619 1289.5 619Z" fill="#2A263F"/>
<path d="M1289.5 645C1290.33 645 1291 644.328 1291 643.5C1291 642.672 1290.33 642 1289.5 642C1288.67 642 1288 642.672 1288 643.5C1288 644.328 1288.67 645 1289.5 645Z" fill="#2A263F"/>
<path d="M1289.5 671C1290.33 671 1291 670.328 1291 669.5C1291 668.672 1290.33 668 1289.5 668C1288.67 668 1288 668.672 1288 669.5C1288 670.328 1288.67 671 1289.5 671Z" fill="#2A263F"/>
<path d="M1289.5 697C1290.33 697 1291 696.328 1291 695.5C1291 694.672 1290.33 694 1289.5 694C1288.67 694 1288 694.672 1288 695.5C1288 696.328 1288.67 697 1289.5 697Z" fill="#2A263F"/>
<path d="M1289.5 723C1290.33 723 1291 722.328 1291 721.5C1291 720.672 1290.33 720 1289.5 720C1288.67 720 1288 720.672 1288 721.5C1288 722.328 1288.67 723 1289.5 723Z" fill="#2A263F"/>
<path d="M1331.85 242.542L1315.58 279.979C1313.99 283.617 1314.61 287.839 1317.16 290.868C1319.71 293.897 1323.76 295.208 1327.6 294.249L1367.11 284.389L1397.56 311.429C1398.84 312.57 1400.36 313.35 1401.97 313.744C1404.06 314.258 1406.3 314.118 1408.38 313.268C1412.04 311.765 1414.54 308.309 1414.82 304.35L1417.74 263.632L1452.84 242.908C1456.25 240.893 1458.23 237.112 1457.94 233.155C1457.65 229.199 1455.15 225.752 1451.48 224.263L1413.77 208.957L1405.01 169.11C1404.16 165.237 1401.19 162.187 1397.35 161.244C1393.51 160.3 1389.46 161.627 1386.91 164.665L1360.69 195.924L1320.18 192.021C1316.24 191.642 1312.43 193.538 1310.34 196.912C1308.25 200.286 1308.26 204.553 1310.35 207.919L1331.85 242.542ZM1364.11 217.201C1367.52 217.529 1370.87 216.155 1373.07 213.528L1389.24 194.249L1394.65 218.826C1395.38 222.175 1397.72 224.945 1400.89 226.231L1424.14 235.671L1402.5 248.455C1399.55 250.197 1397.64 253.282 1397.4 256.705L1395.6 281.82L1376.82 265.142C1375.54 264.006 1374.02 263.222 1372.41 262.826C1370.79 262.429 1369.08 262.421 1367.42 262.836L1343.05 268.917L1353.09 245.826C1354.46 242.679 1354.2 239.061 1352.39 236.15L1339.13 214.794L1364.11 217.201Z" fill="url(#paint0_linear)"/>
<path d="M128.828 623.311L132.863 671.939L95.0933 702.832C92.1473 705.242 90.8245 709.115 91.6814 712.824C92.5384 716.532 95.4268 719.433 99.1313 720.305L146.626 731.494L164.335 776.962C165.717 780.509 168.992 782.963 172.784 783.295C176.576 783.627 180.227 781.775 182.202 778.521L207.52 736.808L256.236 734.017C260.035 733.799 263.383 731.443 264.87 727.938C266.355 724.435 265.724 720.39 263.24 717.506L231.392 680.538L243.79 633.345C244.211 631.746 244.22 630.104 243.862 628.554C243.395 626.534 242.303 624.668 240.677 623.256C237.804 620.758 233.762 620.11 230.252 621.582L185.251 640.448L144.198 614.073C140.996 612.015 136.903 611.954 133.641 613.915C130.378 615.876 128.512 619.518 128.828 623.311ZM178.863 660.114C181.632 661.893 185.099 662.197 188.134 660.923L219.297 647.859L210.711 680.541C209.874 683.724 210.658 687.114 212.807 689.609L234.861 715.209L201.126 717.143C197.84 717.33 194.857 719.124 193.15 721.938L175.618 750.823L163.354 719.337C162.16 716.27 159.533 713.987 156.33 713.233L123.439 705.484L149.595 684.092C152.142 682.008 153.502 678.804 153.23 675.524L150.435 641.85L178.863 660.114Z" fill="url(#paint1_linear)"/>
<path d="M91.4141 -33.7675C93.2132 -36.3436 96.1181 -37.9232 99.2573 -38.0371L207.846 -41.9066C212.299 -42.0653 216.32 -39.2585 217.706 -35.0225L257.26 85.8703C263.252 77.2897 271.964 70.5093 282.655 67.0116C308.858 58.4384 337.151 72.7816 345.724 98.9847C354.297 125.188 339.954 153.481 313.751 162.054C287.547 170.627 259.255 156.284 250.681 130.081L218.519 31.7786L117.451 35.3802C112.998 35.5389 108.977 32.7322 107.591 28.4961L90.1094 -24.9338C89.1323 -27.92 89.616 -31.1916 91.4141 -33.7675ZM307.531 143.045C323.253 137.902 331.859 120.926 326.715 105.204C321.571 89.4821 304.596 80.8762 288.874 86.0201C273.152 91.164 264.546 108.14 269.69 123.862C274.834 139.583 291.81 148.189 307.531 143.045ZM124.259 15.125L212.047 11.9965L201.038 -21.6514L113.25 -18.5228L124.259 15.125Z" fill="url(#paint2_linear)"/>
</g>
<defs>
<linearGradient id="paint0_linear" x1="1315" y1="295.5" x2="1495" y2="208" gradientUnits="userSpaceOnUse">
<stop stop-color="#5EC6E8"/>
<stop offset="0.85976" stop-color="#5EC6E8" stop-opacity="0"/>
</linearGradient>
<linearGradient id="paint1_linear" x1="173" y1="722.5" x2="218.5" y2="604.5" gradientUnits="userSpaceOnUse">
<stop stop-color="#F2CACA" stop-opacity="0"/>
<stop offset="0.878125" stop-color="#F2CACA"/>
</linearGradient>
<linearGradient id="paint2_linear" x1="177.5" y1="22.5" x2="301.5" y2="175.5" gradientUnits="userSpaceOnUse">
<stop stop-color="#ADF4A2" stop-opacity="0"/>
<stop offset="1" stop-color="#55DE3E"/>
</linearGradient>
<clipPath id="clip0">
<rect width="1544" height="776" fill="white"/>
</clipPath>
</defs>
</svg>
