<svg width="1733" height="568" viewBox="0 0 1733 568" fill="none" xmlns="http://www.w3.org/2000/svg">
<path d="M1653.35 169.982C1652.59 169.679 1651.81 169.499 1651.03 169.42L1651.03 169.414L1625.33 166.82C1620.58 166.34 1616.34 169.804 1615.86 174.556C1615.46 178.49 1617.76 182.072 1621.26 183.463C1621.99 183.753 1622.77 183.947 1623.59 184.031L1637.89 185.475L1626.57 213.946L1515.63 202.745L1526.95 174.275L1546.15 176.213C1550.9 176.693 1555.15 173.229 1555.63 168.477C1556.11 163.724 1552.65 159.485 1547.89 159.002L1522.2 156.407L1522.19 156.413C1518.45 156.034 1514.75 158.145 1513.29 161.819L1472.65 264.06C1467.94 256.33 1460.78 250.01 1451.74 246.416C1429.59 237.609 1404.4 248.473 1395.59 270.634C1386.78 292.794 1397.64 317.989 1419.79 326.796C1441.95 335.603 1467.14 324.739 1475.95 302.578L1508.99 219.461L1619.93 230.662L1601.48 277.067C1596.77 269.338 1589.61 263.018 1580.57 259.425C1558.42 250.617 1533.23 261.481 1524.42 283.642C1515.61 305.802 1526.47 330.997 1548.62 339.804C1570.78 348.611 1595.97 337.747 1604.78 315.586L1658.19 181.215C1659.96 176.775 1657.79 171.747 1653.35 169.982ZM1426.18 310.72C1412.89 305.436 1406.37 290.319 1411.66 277.023C1416.94 263.726 1432.06 257.208 1445.35 262.492C1458.65 267.776 1465.16 282.893 1459.87 296.189C1454.59 309.486 1439.47 316.004 1426.18 310.72ZM1555.01 323.728C1541.72 318.444 1535.21 303.327 1540.49 290.031C1545.78 276.734 1560.89 270.216 1574.18 275.5C1587.48 280.785 1593.99 295.901 1588.71 309.197C1583.42 322.494 1568.31 329.012 1555.01 323.728Z" fill="url(#paint0_linear)"/>
<path d="M248.874 90.5173C252.672 89.7139 256.624 90.7427 259.551 93.2909L360.72 181.497C364.869 185.115 366.125 191.041 363.797 196.031L297.373 338.426C310.021 335.75 323.601 336.994 336.193 342.868C367.057 357.265 380.454 394.088 366.056 424.952C351.659 455.816 314.836 469.212 283.972 454.815C253.108 440.418 239.712 403.595 254.109 372.731L308.121 256.944L213.958 174.846C209.809 171.229 208.554 165.303 210.881 160.313L240.238 97.3798C241.879 93.8625 245.078 91.3212 248.874 90.5173V90.5173ZM294.416 432.426C312.935 441.064 335.028 433.026 343.667 414.508C352.305 395.989 344.267 373.896 325.749 365.257C307.231 356.619 285.137 364.657 276.498 383.175C267.86 401.693 275.898 423.787 294.416 432.426ZM237.201 162.333L318.99 233.643L337.478 194.01L255.688 122.701L237.201 162.333Z" fill="url(#paint1_linear)"/>
<defs>
<linearGradient id="paint0_linear" x1="1595" y1="221" x2="1516" y2="274.5" gradientUnits="userSpaceOnUse">
<stop stop-color="#ACE6F9" stop-opacity="0"/>
<stop offset="0.909375" stop-color="#ACE6F9"/>
</linearGradient>
<linearGradient id="paint1_linear" x1="191" y1="300" x2="400.5" y2="369" gradientUnits="userSpaceOnUse">
<stop stop-color="#ACE6F9" stop-opacity="0"/>
<stop offset="1" stop-color="#ACE6F9"/>
</linearGradient>
</defs>
</svg>
