<svg width="400" height="194" viewBox="0 0 400 194" fill="none" xmlns="http://www.w3.org/2000/svg">
<g clip-path="url(#clip0_783_2)">
<mask id="mask0_783_2" style="mask-type:alpha" maskUnits="userSpaceOnUse" x="0" y="0" width="400" height="194">
<path d="M400 0H0V194H400V0Z" fill="#141125"/>
</mask>
<g mask="url(#mask0_783_2)">
<path d="M33 56C33 42.7454 22.2546 32 9 32C-4.2546 32 -15 42.7454 -15 56C-15 69.2546 -4.2546 80 9 80C22.2546 80 33 69.2546 33 56Z" fill="#2A263F"/>
<path d="M199 158.5C199 148.835 191.165 141 181.5 141C171.835 141 164 148.835 164 158.5C164 168.165 171.835 176 181.5 176C191.165 176 199 168.165 199 158.5Z" fill="#2A263F"/>
<path d="M322 85C322 80.0295 317.97 76 313 76C308.03 76 304 80.0295 304 85C304 89.9705 308.03 94 313 94C317.97 94 322 89.9705 322 85Z" fill="#2A263F"/>
<path d="M267 33.5C267 30.4625 264.538 28 261.5 28C258.462 28 256 30.4625 256 33.5C256 36.5375 258.462 39 261.5 39C264.538 39 267 36.5375 267 33.5Z" fill="#2A263F"/>
<path d="M318 31C318 6.14717 338.148 -14 363 -14H403.5C405.985 -14 408 -11.9852 408 -9.5V31C408 55.8528 387.852 76 363 76C338.148 76 318 55.8528 318 31Z" fill="#2A263F"/>
<path d="M280 100C280 77.909 262.091 60 240 60C217.909 60 200 77.909 200 100C200 122.091 217.909 140 240 140C262.091 140 280 122.091 280 100Z" fill="#2A263F"/>
<path d="M389 188.5C389 154.535 361.465 127 327.5 127C293.535 127 266 154.535 266 188.5C266 222.465 293.535 250 327.5 250C361.465 250 389 222.465 389 188.5Z" fill="#2A263F"/>
<path d="M188 53.5C188 27.2665 166.733 6 140.5 6C114.266 6 93 27.2665 93 53.5C93 79.7335 114.266 101 140.5 101C166.733 101 188 79.7335 188 53.5Z" fill="#2A263F"/>
<path d="M111 150.5C111 118.744 85.2558 93 53.5 93C21.7436 93 -4 118.744 -4 150.5C-4 182.256 21.7436 208 53.5 208C85.2558 208 111 182.256 111 150.5Z" fill="#2A263F"/>
<path fill-rule="evenodd" clip-rule="evenodd" d="M375.809 29.9462C368.556 25.6394 356.594 25.2438 349.669 27.3456C348.558 27.6831 347.382 27.055 347.046 25.9432C346.708 24.8312 347.335 23.6556 348.449 23.3181C356.397 20.905 369.608 21.3718 377.957 26.3275C378.956 26.9219 379.285 28.2118 378.692 29.2113C378.1 30.2106 376.808 30.5406 375.809 29.9462ZM375.572 36.3269C375.063 37.1519 373.984 37.4106 373.159 36.9044C367.113 33.1882 357.893 32.11 350.738 34.2812C349.812 34.5625 348.831 34.0393 348.55 33.1131C348.271 32.185 348.794 31.2082 349.72 30.925C357.891 28.4463 368.05 29.6462 374.995 33.9156C375.82 34.4218 376.079 35.5037 375.572 36.3269ZM372.818 42.4525C372.415 43.1163 371.551 43.3244 370.89 42.9194C365.607 39.6907 358.956 38.9612 351.124 40.75C350.37 40.9225 349.619 40.45 349.447 39.6963C349.273 38.9406 349.745 38.1888 350.5 38.0162C359.071 36.0569 366.423 36.9007 372.353 40.525C373.015 40.9282 373.223 41.7925 372.818 42.4525ZM362.5 10C350.074 10 340 20.0744 340 32.5C340 44.9275 350.074 55 362.5 55C374.928 55 385 44.9275 385 32.5C385 20.0744 374.928 10 362.5 10Z" fill="#1ED760"/>
<path fill-rule="evenodd" clip-rule="evenodd" d="M224.813 81L222 87.865V115.925H231.999V121H237.624L242.937 115.925H251.062L262 105.477V81H224.813ZM258.249 103.687L251.999 109.657H242L236.687 114.732V109.657H228.25V84.582H258.249V103.687ZM251.999 91.448V101.885H248.25V91.448H251.999ZM242 91.448V101.885H238.251V91.448H242Z" fill="#8D47F7"/>
<path d="M336 189C336 184.03 331.97 180 327 180C322.03 180 318 184.03 318 189C318 193.97 322.03 198 327 198C331.97 198 336 193.97 336 189Z" fill="white"/>
<path d="M313 189C313 184.03 308.97 180 304 180C299.03 180 295 184.03 295 189C295 193.97 299.03 198 304 198C308.97 198 313 193.97 313 189Z" fill="white"/>
<path d="M359 188C359 183.03 354.97 179 350 179C345.03 179 341 183.03 341 188C341 192.97 345.03 197 350 197C354.97 197 359 192.97 359 188Z" fill="white"/>
</g>
<path fill-rule="evenodd" clip-rule="evenodd" d="M79.7489 165.452C80.8561 155.721 78.0343 145.821 76.4849 142.087C75.0573 138.279 72.1482 133.577 70.8722 131.702C66.2524 129.433 60.8341 128.288 58.7024 128L57.1752 131.125C52.5731 130.505 48.4269 130.505 43.8248 131.125L42.2976 128C40.1659 128.288 34.7476 129.433 30.1278 131.702C28.8518 133.577 25.9427 138.279 24.5151 142.087C22.9657 145.821 20.1439 155.721 21.2511 165.452C23.4146 167.183 29.4692 171.115 36.1889 173C36.7616 172.375 38.1742 170.471 39.4341 167.856C38.0819 167.263 35.1866 165.942 34.4231 165.404L35.6162 164.434C44.7787 168.927 56.2213 168.927 65.3838 164.434L66.5769 165.404C65.8134 165.942 62.9181 167.263 61.5659 167.856C62.8258 170.471 64.2384 172.375 64.8111 173C71.5308 171.115 77.5854 167.183 79.7489 165.452ZM60.2773 158.673C63.203 158.673 65.5747 156.004 65.5747 152.712C65.5747 149.419 63.203 146.75 60.2773 146.75C57.3516 146.75 54.9799 149.419 54.9799 152.712C54.9799 156.004 57.3516 158.673 60.2773 158.673ZM40.7227 158.673C37.797 158.673 35.4253 156.004 35.4253 152.712C35.4253 149.419 37.797 146.75 40.7227 146.75C43.6484 146.75 46.0201 149.419 46.0201 152.712C46.0201 156.004 43.6484 158.673 40.7227 158.673Z" fill="#424AA0"/>
<path d="M111.809 59.3222C111.243 59.8446 110.32 61.4341 111.796 62.7812C113.475 64.3134 113.96 64.7559 114.603 65.3391C115.246 65.9222 116.342 66.5145 117.674 65.4981C118.253 65.0561 121.945 62.2401 126.861 58.4892L126.82 58.4517L119.789 52C115.272 56.1438 111.997 59.1494 111.809 59.3222Z" fill="url(#paint0_linear_783_2)"/>
<path d="M151.505 27.4357C151.505 25.8188 149.712 24.7056 148.223 25.9116C148.223 25.9116 136.885 36.3136 126.861 45.5108C129.448 47.4848 132.375 49.7178 135.366 52C141.175 47.5673 147.226 42.9488 151.505 39.6814L151.505 27.4357Z" fill="#3384BA"/>
<path d="M151.505 27.4357C151.505 25.8188 149.712 24.7056 148.223 25.9116C148.223 25.9116 136.885 36.3136 126.861 45.5108C129.448 47.4848 132.375 49.7178 135.366 52C141.175 47.5673 147.226 42.9488 151.505 39.6814L151.505 27.4357Z" fill="url(#paint1_linear_783_2)"/>
<path d="M151.505 27.4357C151.505 25.8188 149.712 24.7056 148.223 25.9116C148.223 25.9116 136.885 36.3136 126.861 45.5108C129.448 47.4848 132.375 49.7178 135.366 52C141.175 47.5673 147.226 42.9488 151.505 39.6814L151.505 27.4357Z" fill="url(#paint2_linear_783_2)"/>
<path d="M151.505 27.4357C151.505 25.8188 149.712 24.7056 148.223 25.9116C148.223 25.9116 136.885 36.3136 126.861 45.5108C129.448 47.4848 132.375 49.7178 135.366 52C141.175 47.5673 147.226 42.9488 151.505 39.6814L151.505 27.4357Z" fill="url(#paint3_linear_783_2)"/>
<path d="M111.796 41.2187C110.32 42.5659 111.243 44.1554 111.809 44.6778C111.997 44.8506 115.272 47.8561 119.789 52L126.82 58.4517L126.861 58.4892C136.885 67.6864 148.223 78.0884 148.223 78.0884C149.712 79.2944 151.505 78.1811 151.505 76.5643V64.3186C147.226 61.0512 141.175 56.4327 135.366 52C132.375 49.7178 129.448 47.4848 126.861 45.5108C121.945 41.7599 118.253 38.9439 117.674 38.5019C116.342 37.4855 115.246 38.0778 114.603 38.6609C113.96 39.2441 113.475 39.6865 111.796 41.2187Z" fill="url(#paint4_linear_783_2)"/>
<path d="M165 34.1284C165 32.2333 164.499 31.3416 162.325 30.3248C160.51 29.4765 153.558 26.1007 151.874 25.2825C150.187 24.5566 148.737 25.3994 148.223 25.9116C149.712 24.7056 151.505 25.8188 151.505 27.4357L151.505 39.6814L151.505 64.3186V76.5643C151.505 78.1811 149.712 79.2944 148.223 78.0884C148.737 78.6005 150.187 79.4434 151.874 78.7175C152.67 78.3308 154.642 77.3731 156.692 76.3809C158.981 75.2733 161.368 74.1226 162.325 73.6751C164.499 72.6584 165 71.7667 165 69.8716V34.1284Z" fill="url(#paint5_linear_783_2)"/>
</g>
<defs>
<linearGradient id="paint0_linear_783_2" x1="130.241" y1="47.7553" x2="110.898" y2="66.0291" gradientUnits="userSpaceOnUse">
<stop offset="0.392935" stop-color="#19699F"/>
<stop offset="0.471825" stop-color="#106FAE"/>
<stop offset="1" stop-color="#106FAE"/>
</linearGradient>
<linearGradient id="paint1_linear_783_2" x1="127.724" y1="47.9938" x2="131.718" y2="42.9794" gradientUnits="userSpaceOnUse">
<stop stop-color="#216EA2"/>
<stop offset="1" stop-color="#216EA2" stop-opacity="0"/>
</linearGradient>
<linearGradient id="paint2_linear_783_2" x1="142.696" y1="55.7998" x2="133.333" y2="41.9459" gradientUnits="userSpaceOnUse">
<stop stop-color="#257BB5"/>
<stop offset="1" stop-color="#257BB5" stop-opacity="0"/>
</linearGradient>
<linearGradient id="paint3_linear_783_2" x1="148.165" y1="29.4397" x2="157.285" y2="29.4397" gradientUnits="userSpaceOnUse">
<stop stop-color="#216EA2" stop-opacity="0"/>
<stop offset="1" stop-color="#216EA2"/>
</linearGradient>
<linearGradient id="paint4_linear_783_2" x1="99.8769" y1="54.9516" x2="153.38" y2="73.0713" gradientUnits="userSpaceOnUse">
<stop stop-color="#2F93D5"/>
<stop offset="0.255699" stop-color="#1082CF"/>
<stop offset="0.827067" stop-color="#1082CF"/>
<stop offset="0.947061" stop-color="#216EA2"/>
</linearGradient>
<linearGradient id="paint5_linear_783_2" x1="111" y1="52" x2="165" y2="52" gradientUnits="userSpaceOnUse">
<stop stop-color="#55B4F4"/>
<stop offset="1" stop-color="#239EF0"/>
</linearGradient>
<clipPath id="clip0_783_2">
<rect width="400" height="194" fill="white"/>
</clipPath>
</defs>
</svg>
