<svg width="1442" height="669" viewBox="0 0 1442 669" fill="none" xmlns="http://www.w3.org/2000/svg">
<g clip-path="url(#clip0)">
<path d="M940.456 218.456C947.207 211.705 951 202.548 951 193C951 183.452 947.207 174.295 940.456 167.544C933.941 161.029 925.185 157.269 916 157.014V124.007C933.938 124.267 951.086 131.506 963.79 144.21C976.73 157.15 984 174.7 984 193C984 211.3 976.73 228.85 963.79 241.79C951.086 254.494 933.938 261.733 916 261.993V228.986C925.185 228.731 933.941 224.971 940.456 218.456Z" stroke="#141125" stroke-width="2"/>
<path d="M387.5 55C388.328 55 389 54.328 389 53.5C389 52.672 388.328 52 387.5 52C386.672 52 386 52.672 386 53.5C386 54.328 386.672 55 387.5 55Z" fill="#141125"/>
<path d="M387.5 81C388.328 81 389 80.328 389 79.5C389 78.672 388.328 78 387.5 78C386.672 78 386 78.672 386 79.5C386 80.328 386.672 81 387.5 81Z" fill="#141125"/>
<path d="M387.5 107C388.328 107 389 106.328 389 105.5C389 104.672 388.328 104 387.5 104C386.672 104 386 104.672 386 105.5C386 106.328 386.672 107 387.5 107Z" fill="#141125"/>
<path d="M387.5 133C388.328 133 389 132.328 389 131.5C389 130.672 388.328 130 387.5 130C386.672 130 386 130.672 386 131.5C386 132.328 386.672 133 387.5 133Z" fill="#141125"/>
<path d="M387.5 159C388.328 159 389 158.328 389 157.5C389 156.672 388.328 156 387.5 156C386.672 156 386 156.672 386 157.5C386 158.328 386.672 159 387.5 159Z" fill="#141125"/>
<path d="M387.5 185C388.328 185 389 184.328 389 183.5C389 182.672 388.328 182 387.5 182C386.672 182 386 182.672 386 183.5C386 184.328 386.672 185 387.5 185Z" fill="#141125"/>
<path d="M421.5 55C422.328 55 423 54.328 423 53.5C423 52.672 422.328 52 421.5 52C420.672 52 420 52.672 420 53.5C420 54.328 420.672 55 421.5 55Z" fill="#141125"/>
<path d="M421.5 81C422.328 81 423 80.328 423 79.5C423 78.672 422.328 78 421.5 78C420.672 78 420 78.672 420 79.5C420 80.328 420.672 81 421.5 81Z" fill="#141125"/>
<path d="M421.5 107C422.328 107 423 106.328 423 105.5C423 104.672 422.328 104 421.5 104C420.672 104 420 104.672 420 105.5C420 106.328 420.672 107 421.5 107Z" fill="#141125"/>
<path d="M421.5 133C422.328 133 423 132.328 423 131.5C423 130.672 422.328 130 421.5 130C420.672 130 420 130.672 420 131.5C420 132.328 420.672 133 421.5 133Z" fill="#141125"/>
<path d="M421.5 159C422.328 159 423 158.328 423 157.5C423 156.672 422.328 156 421.5 156C420.672 156 420 156.672 420 157.5C420 158.328 420.672 159 421.5 159Z" fill="#141125"/>
<path d="M421.5 185C422.328 185 423 184.328 423 183.5C423 182.672 422.328 182 421.5 182C420.672 182 420 182.672 420 183.5C420 184.328 420.672 185 421.5 185Z" fill="#141125"/>
<path d="M455.5 55C456.328 55 457 54.328 457 53.5C457 52.672 456.328 52 455.5 52C454.672 52 454 52.672 454 53.5C454 54.328 454.672 55 455.5 55Z" fill="#141125"/>
<path d="M455.5 81C456.328 81 457 80.328 457 79.5C457 78.672 456.328 78 455.5 78C454.672 78 454 78.672 454 79.5C454 80.328 454.672 81 455.5 81Z" fill="#141125"/>
<path d="M455.5 107C456.328 107 457 106.328 457 105.5C457 104.672 456.328 104 455.5 104C454.672 104 454 104.672 454 105.5C454 106.328 454.672 107 455.5 107Z" fill="#141125"/>
<path d="M455.5 133C456.328 133 457 132.328 457 131.5C457 130.672 456.328 130 455.5 130C454.672 130 454 130.672 454 131.5C454 132.328 454.672 133 455.5 133Z" fill="#141125"/>
<path d="M455.5 159C456.328 159 457 158.328 457 157.5C457 156.672 456.328 156 455.5 156C454.672 156 454 156.672 454 157.5C454 158.328 454.672 159 455.5 159Z" fill="#141125"/>
<path d="M455.5 185C456.328 185 457 184.328 457 183.5C457 182.672 456.328 182 455.5 182C454.672 182 454 182.672 454 183.5C454 184.328 454.672 185 455.5 185Z" fill="#141125"/>
<path d="M489.5 55C490.328 55 491 54.328 491 53.5C491 52.672 490.328 52 489.5 52C488.672 52 488 52.672 488 53.5C488 54.328 488.672 55 489.5 55Z" fill="#141125"/>
<path d="M489.5 81C490.328 81 491 80.328 491 79.5C491 78.672 490.328 78 489.5 78C488.672 78 488 78.672 488 79.5C488 80.328 488.672 81 489.5 81Z" fill="#141125"/>
<path d="M489.5 107C490.328 107 491 106.328 491 105.5C491 104.672 490.328 104 489.5 104C488.672 104 488 104.672 488 105.5C488 106.328 488.672 107 489.5 107Z" fill="#141125"/>
<path d="M489.5 133C490.328 133 491 132.328 491 131.5C491 130.672 490.328 130 489.5 130C488.672 130 488 130.672 488 131.5C488 132.328 488.672 133 489.5 133Z" fill="#141125"/>
<path d="M489.5 159C490.328 159 491 158.328 491 157.5C491 156.672 490.328 156 489.5 156C488.672 156 488 156.672 488 157.5C488 158.328 488.672 159 489.5 159Z" fill="#141125"/>
<path d="M489.5 185C490.328 185 491 184.328 491 183.5C491 182.672 490.328 182 489.5 182C488.672 182 488 182.672 488 183.5C488 184.328 488.672 185 489.5 185Z" fill="#141125"/>
<path d="M523.5 55C524.328 55 525 54.328 525 53.5C525 52.672 524.328 52 523.5 52C522.672 52 522 52.672 522 53.5C522 54.328 522.672 55 523.5 55Z" fill="#141125"/>
<path d="M523.5 81C524.328 81 525 80.328 525 79.5C525 78.672 524.328 78 523.5 78C522.672 78 522 78.672 522 79.5C522 80.328 522.672 81 523.5 81Z" fill="#141125"/>
<path d="M523.5 107C524.328 107 525 106.328 525 105.5C525 104.672 524.328 104 523.5 104C522.672 104 522 104.672 522 105.5C522 106.328 522.672 107 523.5 107Z" fill="#141125"/>
<path d="M523.5 133C524.328 133 525 132.328 525 131.5C525 130.672 524.328 130 523.5 130C522.672 130 522 130.672 522 131.5C522 132.328 522.672 133 523.5 133Z" fill="#141125"/>
<path d="M523.5 159C524.328 159 525 158.328 525 157.5C525 156.672 524.328 156 523.5 156C522.672 156 522 156.672 522 157.5C522 158.328 522.672 159 523.5 159Z" fill="#141125"/>
<path d="M523.5 185C524.328 185 525 184.328 525 183.5C525 182.672 524.328 182 523.5 182C522.672 182 522 182.672 522 183.5C522 184.328 522.672 185 523.5 185Z" fill="#141125"/>
<path d="M557.5 55C558.328 55 559 54.328 559 53.5C559 52.672 558.328 52 557.5 52C556.672 52 556 52.672 556 53.5C556 54.328 556.672 55 557.5 55Z" fill="#141125"/>
<path d="M557.5 81C558.328 81 559 80.328 559 79.5C559 78.672 558.328 78 557.5 78C556.672 78 556 78.672 556 79.5C556 80.328 556.672 81 557.5 81Z" fill="#141125"/>
<path d="M557.5 107C558.328 107 559 106.328 559 105.5C559 104.672 558.328 104 557.5 104C556.672 104 556 104.672 556 105.5C556 106.328 556.672 107 557.5 107Z" fill="#141125"/>
<path d="M557.5 133C558.328 133 559 132.328 559 131.5C559 130.672 558.328 130 557.5 130C556.672 130 556 130.672 556 131.5C556 132.328 556.672 133 557.5 133Z" fill="#141125"/>
<path d="M557.5 159C558.328 159 559 158.328 559 157.5C559 156.672 558.328 156 557.5 156C556.672 156 556 156.672 556 157.5C556 158.328 556.672 159 557.5 159Z" fill="#141125"/>
<path d="M557.5 185C558.328 185 559 184.328 559 183.5C559 182.672 558.328 182 557.5 182C556.672 182 556 182.672 556 183.5C556 184.328 556.672 185 557.5 185Z" fill="#141125"/>
<path d="M591.5 55C592.328 55 593 54.328 593 53.5C593 52.672 592.328 52 591.5 52C590.672 52 590 52.672 590 53.5C590 54.328 590.672 55 591.5 55Z" fill="#141125"/>
<path d="M591.5 81C592.328 81 593 80.328 593 79.5C593 78.672 592.328 78 591.5 78C590.672 78 590 78.672 590 79.5C590 80.328 590.672 81 591.5 81Z" fill="#141125"/>
<path d="M591.5 107C592.328 107 593 106.328 593 105.5C593 104.672 592.328 104 591.5 104C590.672 104 590 104.672 590 105.5C590 106.328 590.672 107 591.5 107Z" fill="#141125"/>
<path d="M591.5 133C592.328 133 593 132.328 593 131.5C593 130.672 592.328 130 591.5 130C590.672 130 590 130.672 590 131.5C590 132.328 590.672 133 591.5 133Z" fill="#141125"/>
<path d="M591.5 159C592.328 159 593 158.328 593 157.5C593 156.672 592.328 156 591.5 156C590.672 156 590 156.672 590 157.5C590 158.328 590.672 159 591.5 159Z" fill="#141125"/>
<path d="M591.5 185C592.328 185 593 184.328 593 183.5C593 182.672 592.328 182 591.5 182C590.672 182 590 182.672 590 183.5C590 184.328 590.672 185 591.5 185Z" fill="#141125"/>
<path d="M625.5 55C626.328 55 627 54.328 627 53.5C627 52.672 626.328 52 625.5 52C624.672 52 624 52.672 624 53.5C624 54.328 624.672 55 625.5 55Z" fill="#141125"/>
<path d="M625.5 81C626.328 81 627 80.328 627 79.5C627 78.672 626.328 78 625.5 78C624.672 78 624 78.672 624 79.5C624 80.328 624.672 81 625.5 81Z" fill="#141125"/>
<path d="M625.5 107C626.328 107 627 106.328 627 105.5C627 104.672 626.328 104 625.5 104C624.672 104 624 104.672 624 105.5C624 106.328 624.672 107 625.5 107Z" fill="#141125"/>
<path d="M625.5 133C626.328 133 627 132.328 627 131.5C627 130.672 626.328 130 625.5 130C624.672 130 624 130.672 624 131.5C624 132.328 624.672 133 625.5 133Z" fill="#141125"/>
<path d="M625.5 159C626.328 159 627 158.328 627 157.5C627 156.672 626.328 156 625.5 156C624.672 156 624 156.672 624 157.5C624 158.328 624.672 159 625.5 159Z" fill="#141125"/>
<path d="M625.5 185C626.328 185 627 184.328 627 183.5C627 182.672 626.328 182 625.5 182C624.672 182 624 182.672 624 183.5C624 184.328 624.672 185 625.5 185Z" fill="#141125"/>
<path d="M204.799 175.789C203.866 175.974 202.994 176.29 202.188 176.703L202.184 176.697L175.601 190.31C170.686 192.827 168.741 198.853 171.258 203.769C173.342 207.837 177.827 209.869 182.098 209.023C182.988 208.847 183.869 208.545 184.717 208.112L199.508 200.538L206.393 235.283L91.6269 294.054L84.7427 259.31L104.608 249.137C109.524 246.62 111.469 240.594 108.951 235.678C106.434 230.763 100.41 228.82 95.4925 231.335L68.9085 244.949L68.9108 244.955C65.0336 246.94 62.7686 251.309 63.657 255.793L88.3794 380.566C78.9528 376.019 68.036 374.374 57.0025 376.56C29.9582 381.919 12.3154 408.281 17.6739 435.325C23.0324 462.369 49.3942 480.012 76.4384 474.653C103.483 469.295 121.125 442.933 115.767 415.889L95.669 314.455L210.435 255.683L221.656 312.315C212.229 307.769 201.312 306.124 190.279 308.31C163.235 313.669 145.592 340.031 150.95 367.075C156.309 394.119 182.671 411.762 209.715 406.403C236.759 401.045 254.402 374.683 249.043 347.639L232.798 265.647L216.552 183.655C215.478 178.237 210.217 174.716 204.799 175.789ZM72.5513 455.035C56.3247 458.25 40.5077 447.664 37.2926 431.438C34.0774 415.211 44.6631 399.394 60.8897 396.179C77.1162 392.964 92.9333 403.55 96.1484 419.776C99.3635 436.003 88.7778 451.82 72.5513 455.035ZM205.828 386.785C189.601 390 173.784 379.414 170.569 363.188C167.354 346.961 177.939 331.144 194.166 327.929C210.393 324.714 226.21 335.3 229.425 351.526C232.64 367.753 222.054 383.57 205.828 386.785Z" fill="url(#paint0_linear)"/>
<path d="M1451.76 20.1586C1450.05 17.375 1447.13 15.5575 1443.88 15.248L1331.4 4.59212C1326.79 4.15515 1322.44 6.82239 1320.74 11.1347L1272.29 134.208C1266.6 124.936 1257.97 117.365 1247.08 113.079C1220.41 102.579 1190.17 115.737 1179.66 142.412C1169.16 169.089 1182.32 199.334 1209 209.837C1235.67 220.337 1265.91 207.178 1276.42 180.503L1315.82 80.4271L1420.51 90.3453C1425.12 90.7823 1429.47 88.1156 1431.16 83.8021L1452.58 29.4085C1453.78 26.3689 1453.47 22.9433 1451.76 20.1586ZM1216.61 190.484C1200.61 184.184 1192.71 166.036 1199.01 150.031C1205.31 134.025 1223.46 126.129 1239.47 132.431C1255.47 138.732 1263.36 156.879 1257.06 172.884C1250.77 188.891 1232.61 196.784 1216.61 190.484ZM1414.68 68.9031L1323.74 60.2885L1337.23 26.0342L1428.17 34.6493L1414.68 68.9031Z" fill="url(#paint1_linear)"/>
<path d="M1124.96 486.377L1080.24 505.905L1038.8 480.139C1035.57 478.129 1031.48 478.128 1028.24 480.137C1025.01 482.146 1023.2 485.817 1023.57 489.604L1028.32 538.167L991.014 569.615C988.103 572.067 986.839 575.96 987.75 579.656C988.661 583.352 991.592 586.209 995.31 587.027L1042.97 597.514L1061.34 642.716C1062.78 646.241 1066.09 648.648 1069.88 648.923C1073.68 649.197 1077.3 647.294 1079.23 644.011L1103.93 601.928L1152.6 598.417C1154.25 598.299 1155.8 597.778 1157.16 596.938C1158.92 595.844 1160.33 594.207 1161.14 592.212C1162.58 588.687 1161.88 584.652 1159.36 581.805L1126.97 545.311L1138.67 497.94C1139.58 494.244 1138.31 490.351 1135.4 487.897C1132.49 485.443 1128.45 484.853 1124.96 486.377ZM1106.29 545.618C1105.5 548.813 1106.33 552.193 1108.52 554.654L1130.95 579.926L1097.25 582.357C1093.96 582.594 1091.01 584.431 1089.34 587.27L1072.24 616.412L1059.51 585.11C1058.27 582.061 1055.61 579.817 1052.4 579.11L1019.4 571.849L1045.23 550.072C1047.75 547.951 1049.06 544.727 1048.74 541.452L1045.45 507.822L1074.14 525.665C1076.94 527.403 1080.41 527.655 1083.43 526.337L1114.39 512.814L1106.29 545.618Z" fill="url(#paint2_linear)"/>
</g>
<defs>
<linearGradient id="paint0_linear" x1="458.5" y1="470" x2="31.5" y2="476" gradientUnits="userSpaceOnUse">
<stop offset="0.488944" stop-color="#5EC6E8"/>
<stop offset="0.803996" stop-color="#5EC6E8" stop-opacity="0.450107"/>
<stop offset="0.924671" stop-color="#5EC6E8" stop-opacity="0"/>
</linearGradient>
<linearGradient id="paint1_linear" x1="1416.5" y1="251" x2="1109.5" y2="249" gradientUnits="userSpaceOnUse">
<stop offset="0.144519" stop-color="#F9BD64" stop-opacity="0"/>
<stop offset="0.690625" stop-color="#F9BD64"/>
</linearGradient>
<linearGradient id="paint2_linear" x1="998.5" y1="483.5" x2="1150" y2="668" gradientUnits="userSpaceOnUse">
<stop stop-color="#D34040"/>
<stop offset="0.747843" stop-color="#D34040" stop-opacity="0"/>
</linearGradient>
<clipPath id="clip0">
<rect width="1442" height="669" fill="white"/>
</clipPath>
</defs>
</svg>
