<svg width="730" height="644" viewBox="0 0 730 644" fill="none" xmlns="http://www.w3.org/2000/svg">
<g clip-path="url(#clip0)">
<path d="M51.6934 304.029H332.051V106.268H51.6934V304.029Z" fill="url(#paint0_linear)"/>
<path d="M338.051 310.029H45.6934V100.268H338.051V310.029ZM51.6934 304.029H332.051V106.268H51.6934V304.029Z" fill="#E6E6E6"/>
<path d="M26.878 285.855H24.811V84.869H305.177V86.952H26.878V285.855Z" fill="#3F3D56"/>
<path d="M2.068 263.986H0V63H280.366V65.083H2.068V263.986Z" fill="#3F3D56"/>
<path d="M191.959 265.8C225.074 265.8 251.919 238.758 251.919 205.4C251.919 172.042 225.074 145 191.959 145C158.845 145 132 172.042 132 205.4C132 238.758 158.845 265.8 191.959 265.8Z" fill="white"/>
<path d="M191.872 266.548C158.259 266.548 130.913 239.004 130.913 205.148C130.913 171.292 158.259 143.749 191.872 143.749C225.485 143.749 252.831 171.292 252.831 205.148C252.831 239.004 225.485 266.548 191.872 266.548ZM191.872 145.749C159.362 145.749 132.913 172.395 132.913 205.148C132.913 237.902 159.362 264.548 191.872 264.548C224.382 264.548 250.831 237.902 250.831 205.148C250.831 172.395 224.382 145.749 191.872 145.749V145.749Z" fill="#3F3D56"/>
<path d="M221 196.693C221 188.026 213.96 181 205.277 181C200.005 181 195.354 183.597 192.5 187.566C189.646 183.597 184.995 181 179.725 181C171.04 181 164 188.024 164 196.693C164 197.921 164.156 199.111 164.424 200.257C166.607 213.796 181.69 228.078 192.5 232C203.309 228.078 218.393 213.796 220.573 200.259C220.844 199.112 221 197.923 221 196.693Z" fill="#BCB8D0"/>
<path d="M606.953 606.424C610.635 607.719 614.588 608.043 618.432 607.366C622.276 606.689 625.881 605.033 628.899 602.558C636.586 596.106 639 585.477 640.958 575.634L646.758 546.522L634.615 554.884C625.882 560.897 616.953 567.103 610.906 575.813C604.859 584.523 602.22 596.413 607.078 605.837" fill="#E6E6E6"/>
<path d="M607.99 641.67C606.761 632.717 605.497 623.65 606.359 614.601C607.125 606.565 609.576 598.716 614.568 592.28C617.218 588.87 620.442 585.949 624.095 583.647C625.048 583.047 625.924 584.556 624.976 585.154C618.655 589.149 613.766 595.048 611.013 602.001C607.973 609.733 607.485 618.162 608.013 626.375C608.33 631.342 609.001 636.275 609.678 641.205C609.733 641.428 609.7 641.664 609.587 641.863C609.473 642.063 609.288 642.212 609.068 642.279C608.845 642.339 608.607 642.309 608.406 642.195C608.205 642.081 608.057 641.892 607.994 641.669L607.99 641.67Z" fill="#F2F2F2"/>
<path d="M706.083 641.312C706.083 641.312 693.33 609.921 731.587 586.378L706.083 641.312Z" fill="#E6E6E6"/>
<path d="M690.398 640.741C690.398 640.741 686.508 618.367 656.398 618.559L690.398 640.741Z" fill="#E6E6E6"/>
<path d="M449.259 629.614H438.072L432.75 586.462H449.261L449.259 629.614Z" fill="#FFB7B7"/>
<path d="M452.113 640.459L416.039 640.458V640.002C416.039 636.278 417.519 632.707 420.152 630.074C422.785 627.44 426.356 625.961 430.08 625.961H430.081L452.113 625.962L452.113 640.459Z" fill="#2F2E41"/>
<path d="M545.378 613.26L535.998 619.358L508.014 586.081L521.858 577.081L545.378 613.26Z" fill="#FFB7B7"/>
<path d="M553.681 620.797L523.437 640.459L523.188 640.077C521.159 636.955 520.452 633.154 521.225 629.511C521.997 625.869 524.185 622.682 527.306 620.652L527.307 620.651L545.779 608.643L553.681 620.797Z" fill="#2F2E41"/>
<path d="M477.846 222.302C483.539 222.302 488.154 217.687 488.154 211.994C488.154 206.301 483.539 201.686 477.846 201.686C472.153 201.686 467.538 206.301 467.538 211.994C467.538 217.687 472.153 222.302 477.846 222.302Z" fill="#2F2E41"/>
<path d="M468.115 215.743C467.04 214.32 466.353 212.641 466.121 210.872C465.889 209.103 466.12 207.305 466.792 205.652C467.463 203.999 468.552 202.549 469.951 201.443C471.351 200.336 473.014 199.612 474.777 199.341C473.346 199.302 471.923 199.561 470.598 200.102C469.273 200.644 468.075 201.455 467.08 202.485C466.086 203.514 465.317 204.74 464.822 206.083C464.328 207.427 464.119 208.858 464.208 210.287C464.297 211.715 464.683 213.11 465.341 214.381C465.999 215.652 466.915 216.772 468.03 217.67C469.145 218.568 470.435 219.224 471.817 219.596C473.199 219.967 474.644 220.047 476.059 219.83C474.513 219.79 472.995 219.402 471.62 218.694C470.245 217.987 469.047 216.978 468.115 215.743V215.743Z" fill="#2F2E41"/>
<path d="M467.167 278.751C483.891 278.751 497.448 265.193 497.448 248.47C497.448 231.746 483.891 218.189 467.167 218.189C450.443 218.189 436.886 231.746 436.886 248.47C436.886 265.193 450.443 278.751 467.167 278.751Z" fill="#2F2E41"/>
<path d="M438.952 237.439C442.229 230.304 448.15 224.72 455.466 221.868C462.781 219.015 470.919 219.116 478.162 222.15C477.856 221.997 477.552 221.842 477.24 221.698C469.941 218.347 461.61 218.033 454.08 220.824C446.55 223.616 440.437 229.284 437.086 236.583C433.735 243.881 433.421 252.212 436.212 259.742C439.004 267.272 444.672 273.385 451.97 276.736C452.283 276.88 452.599 277.009 452.914 277.141C445.893 273.626 440.512 267.52 437.906 260.113C435.301 252.705 435.676 244.576 438.952 237.439V237.439Z" fill="#2F2E41"/>
<path d="M503.908 407.368L525.609 519.944L554.092 604.035L507.977 613.53L463.218 445.345L461.861 606.749L403.539 608.105L417.103 511.805L433.57 403.086L503.908 407.368Z" fill="#2F2E41"/>
<path d="M467.262 278.541C478.498 278.541 487.607 269.433 487.607 258.196C487.607 246.96 478.498 237.851 467.262 237.851C456.026 237.851 446.917 246.96 446.917 258.196C446.917 269.433 456.026 278.541 467.262 278.541Z" fill="#FFB8B8"/>
<path d="M486.276 288.585L455.08 289.367L433.379 300.218L436.091 362.609L430.832 410.387C430.832 410.387 428.866 417.875 442.429 424.656C446.77 426.826 452.36 427.747 457.956 427.994C469.416 428.366 480.659 424.811 489.822 417.918C492.667 415.833 495.818 414.44 498.483 415.506C505.264 418.218 506.621 410.081 506.621 410.081L498.483 370.747L510.69 333.344L498.36 293.193L486.276 288.585Z" fill="#141125"/>
<path d="M448.481 236.924V259.576H453.728L460.404 252.423L459.51 259.576H482.698L481.268 252.423L484.129 259.576H487.825V236.924H448.481Z" fill="#2F2E41"/>
<path d="M491.897 252.555C491.839 251.941 491.554 251.372 491.098 250.957C490.642 250.542 490.049 250.311 489.432 250.31H486.942V266.721H489.432C490.049 266.72 490.642 266.489 491.098 266.074C491.554 265.659 491.839 265.09 491.897 264.476C493.138 264.142 494.234 263.408 495.016 262.389C495.798 261.369 496.222 260.12 496.223 258.835V258.196C496.222 256.911 495.798 255.662 495.016 254.642C494.234 253.623 493.138 252.889 491.897 252.555Z" fill="#141125"/>
<path d="M446.903 264.684H444.15C443.382 264.684 442.621 264.532 441.912 264.238C441.202 263.945 440.557 263.514 440.014 262.971C439.471 262.428 439.04 261.783 438.746 261.073C438.453 260.364 438.301 259.603 438.301 258.835V258.196C438.301 257.428 438.453 256.667 438.746 255.958C439.04 255.248 439.471 254.604 440.014 254.06C440.557 253.517 441.202 253.087 441.912 252.793C442.621 252.499 443.382 252.347 444.15 252.347H446.903V264.684V264.684Z" fill="#141125"/>
<path d="M447.582 266.721H445.092C444.432 266.721 443.798 266.459 443.331 265.992C442.864 265.525 442.602 264.891 442.602 264.231V264.231V252.8C442.602 252.14 442.864 251.506 443.331 251.039C443.798 250.573 444.432 250.31 445.092 250.31H447.582V266.721V266.721Z" fill="#141125"/>
<path d="M490.564 253.206H488.739C488.739 240.316 479.189 229.83 467.45 229.83C455.709 229.83 446.159 240.316 446.159 253.206H444.334C444.334 239.31 454.703 228.005 467.45 228.005C480.195 228.005 490.564 239.31 490.564 253.206Z" fill="#141125"/>
<path d="M416.213 443.365C417.311 442.765 418.264 441.933 419.005 440.925C419.747 439.917 420.258 438.759 420.504 437.533C420.749 436.306 420.723 435.041 420.426 433.825C420.129 432.61 419.57 431.475 418.787 430.499L428.185 413.351L419.157 405.099L406.226 429.501C404.674 430.925 403.698 432.868 403.484 434.964C403.269 437.059 403.83 439.16 405.061 440.869C406.292 442.578 408.108 443.776 410.163 444.236C412.218 444.696 414.371 444.386 416.213 443.365V443.365Z" fill="#FFB7B7"/>
<path d="M440.16 300.218L436.509 298.429C436.509 298.429 427.953 300.218 425.241 305.643C422.528 311.068 415.746 366.678 415.746 366.678L410.321 403.299C410.321 403.299 406.252 403.299 406.252 407.368C406.252 411.437 400.827 422.287 404.896 422.287C408.965 422.287 425.241 422.287 427.953 419.575C430.666 416.862 436.091 406.011 434.735 404.655C433.379 403.299 430.666 403.299 430.666 403.299L434.482 366.584L440.16 300.218Z" fill="#141125"/>
<path d="M513.055 430.618C512.144 429.76 511.433 428.713 510.971 427.551C510.508 426.388 510.307 425.139 510.38 423.89C510.453 422.641 510.799 421.423 511.393 420.323C511.988 419.222 512.816 418.265 513.82 417.519L509.068 398.552L519.89 392.852L526.225 419.732C527.367 421.503 527.819 423.63 527.496 425.711C527.174 427.793 526.099 429.683 524.475 431.025C522.852 432.367 520.793 433.066 518.688 432.991C516.583 432.916 514.579 432.072 513.055 430.618V430.618Z" fill="#FFB7B7"/>
<path d="M499.443 354.584L503.259 391.299C503.259 391.299 500.546 391.299 499.19 392.655C497.834 394.011 503.259 404.862 505.972 407.575C508.684 410.287 524.96 410.287 529.029 410.287C533.098 410.287 527.673 399.437 527.673 395.368C527.673 391.299 523.604 391.299 523.604 391.299L518.178 354.678C518.178 354.678 511.397 305.068 508.684 299.643C505.972 294.218 497.416 292.429 497.416 292.429L493.765 294.218L499.443 354.584Z" fill="#141125"/>
<path d="M425.058 431.019L424.883 431.13L421.84 426.334C421.609 425.97 421.308 425.654 420.955 425.406C420.601 425.158 420.203 424.981 419.782 424.887C419.36 424.793 418.925 424.783 418.499 424.857C418.074 424.931 417.667 425.088 417.303 425.32L407.142 431.766C406.406 432.233 405.885 432.974 405.695 433.824C405.505 434.675 405.66 435.567 406.127 436.303V436.303L422.82 462.614C423.052 462.979 423.352 463.294 423.705 463.543C424.059 463.791 424.457 463.967 424.879 464.061C425.3 464.156 425.736 464.166 426.161 464.092C426.586 464.018 426.993 463.86 427.357 463.629L437.518 457.182C438.254 456.715 438.775 455.975 438.965 455.124C439.155 454.273 439 453.382 438.533 452.646L427.049 434.544L427.224 434.433L425.058 431.019Z" fill="#3F3D56"/>
<path d="M421.261 426.728L437.93 453.001C438.279 453.551 438.395 454.217 438.253 454.852C438.11 455.488 437.722 456.04 437.172 456.389L426.962 462.867C426.412 463.216 425.746 463.332 425.111 463.19C424.476 463.047 423.923 462.659 423.574 462.109L406.905 435.836C406.557 435.287 406.441 434.621 406.583 433.985C406.725 433.35 407.113 432.797 407.663 432.448L408.902 431.662C408.936 431.85 409.016 432.027 409.134 432.177C409.253 432.328 409.406 432.446 409.581 432.523C409.756 432.6 409.948 432.633 410.138 432.618C410.329 432.604 410.513 432.543 410.675 432.44L416.496 428.747C416.657 428.645 416.791 428.504 416.885 428.338C416.979 428.171 417.031 427.984 417.036 427.793C417.041 427.602 416.999 427.413 416.914 427.242C416.829 427.07 416.703 426.923 416.547 426.812L417.873 425.971C418.423 425.622 419.089 425.506 419.724 425.648C420.36 425.79 420.912 426.179 421.261 426.728V426.728Z" fill="#141125"/>
<path d="M723.278 642.337H342.278C342.012 642.337 341.758 642.232 341.57 642.045C341.383 641.857 341.278 641.603 341.278 641.337C341.278 641.072 341.383 640.818 341.57 640.63C341.758 640.443 342.012 640.337 342.278 640.337H723.278C723.543 640.337 723.797 640.443 723.985 640.63C724.172 640.818 724.278 641.072 724.278 641.337C724.278 641.603 724.172 641.857 723.985 642.045C723.797 642.232 723.543 642.337 723.278 642.337Z" fill="#CBCBCB"/>
</g>
<defs>
<linearGradient id="paint0_linear" x1="192" y1="106" x2="192" y2="296.5" gradientUnits="userSpaceOnUse">
<stop stop-color="#141125"/>
<stop offset="1" stop-color="#141125" stop-opacity="0.4"/>
</linearGradient>
<clipPath id="clip0">
<rect width="730" height="644" fill="white"/>
</clipPath>
</defs>
</svg>
