<svg width="400" height="194" viewBox="0 0 400 194" fill="none" xmlns="http://www.w3.org/2000/svg">
<mask id="mask0" mask-type="alpha" maskUnits="userSpaceOnUse" x="0" y="0" width="400" height="194">
<path d="M400 0H0V194H400V0Z" fill="#141125"/>
</mask>
<g mask="url(#mask0)">
<path d="M33 56C33 42.7454 22.2546 32 9 32C-4.2546 32 -15 42.7454 -15 56C-15 69.2546 -4.2546 80 9 80C22.2546 80 33 69.2546 33 56Z" fill="#2A263F"/>
<path d="M199 158.5C199 148.835 191.165 141 181.5 141C171.835 141 164 148.835 164 158.5C164 168.165 171.835 176 181.5 176C191.165 176 199 168.165 199 158.5Z" fill="#2A263F"/>
<path d="M322 85C322 80.0295 317.97 76 313 76C308.03 76 304 80.0295 304 85C304 89.9705 308.03 94 313 94C317.97 94 322 89.9705 322 85Z" fill="#2A263F"/>
<path d="M267 33.5C267 30.4625 264.538 28 261.5 28C258.462 28 256 30.4625 256 33.5C256 36.5375 258.462 39 261.5 39C264.538 39 267 36.5375 267 33.5Z" fill="#2A263F"/>
<path d="M318 31C318 6.14717 338.148 -14 363 -14H403.5C405.985 -14 408 -11.9852 408 -9.5V31C408 55.8528 387.852 76 363 76C338.148 76 318 55.8528 318 31Z" fill="#2A263F"/>
<path d="M280 100C280 77.909 262.091 60 240 60C217.909 60 200 77.909 200 100C200 122.091 217.909 140 240 140C262.091 140 280 122.091 280 100Z" fill="#2A263F"/>
<path d="M389 188.5C389 154.535 361.465 127 327.5 127C293.535 127 266 154.535 266 188.5C266 222.465 293.535 250 327.5 250C361.465 250 389 222.465 389 188.5Z" fill="#2A263F"/>
<path d="M188 53.5C188 27.2665 166.733 6 140.5 6C114.266 6 93 27.2665 93 53.5C93 79.7335 114.266 101 140.5 101C166.733 101 188 79.7335 188 53.5Z" fill="#2A263F"/>
<path d="M111 150.5C111 118.744 85.2558 93 53.5 93C21.7436 93 -4 118.744 -4 150.5C-4 182.256 21.7436 208 53.5 208C85.2558 208 111 182.256 111 150.5Z" fill="#2A263F"/>
<path d="M155.413 36.358C148.355 35.8797 132.636 35.8816 125.587 36.358C117.955 36.8752 117.056 41.4523 117 53.5C117.056 65.5262 117.948 70.1228 125.587 70.642C132.637 71.1184 148.355 71.1203 155.413 70.642C163.045 70.1248 163.944 65.5477 164 53.5C163.944 41.4738 163.052 36.8772 155.413 36.358ZM134.625 61.2777V45.7223L150.291 53.4863L134.625 61.2777Z" fill="#FF0000"/>
<path d="M53.5 119C36.1041 119 22 133.104 22 150.5C22 167.896 36.1041 182 53.5 182C70.8959 182 85 167.896 85 150.5C85 133.104 70.8959 119 53.5 119ZM36.6554 157.28C35.7261 156.446 35.1249 155.206 35.1249 153.808C35.1249 152.41 35.7261 151.174 36.6554 150.335V157.28ZM39.7188 158.375C39.1623 158.375 38.8709 158.383 38.1883 158.166V149.456C38.9128 149.224 39.2568 149.232 39.7188 149.268V158.375ZM42.7821 158.375H41.2492V149.7L41.7217 149.976C41.9316 149.114 42.3044 148.327 42.7821 147.626V158.375ZM45.8428 158.375H44.3126V146.022C44.7851 145.669 45.2916 145.365 45.8428 145.156V158.375ZM48.9062 158.375H47.3759V144.811C47.9533 144.751 48.1266 144.707 48.9062 144.825V158.375ZM51.9696 158.375H50.4366V145.284L51.0194 145.566C51.2923 145.09 51.6179 144.657 51.9696 144.252V158.375ZM67.4178 158.375H53.5V142.877C54.7206 142.038 56.1669 141.534 57.7289 141.534C61.8842 141.534 65.2522 144.964 65.5618 149.308C68.5543 147.843 71.8751 150.201 71.8751 153.618C71.8751 156.244 69.8773 158.375 67.4178 158.375Z" fill="white"/>
<path fill-rule="evenodd" clip-rule="evenodd" d="M375.809 29.9462C368.556 25.6394 356.594 25.2438 349.669 27.3456C348.558 27.6831 347.382 27.055 347.046 25.9432C346.708 24.8312 347.335 23.6556 348.449 23.3181C356.397 20.905 369.608 21.3718 377.957 26.3275C378.956 26.9219 379.285 28.2118 378.692 29.2113C378.1 30.2106 376.808 30.5406 375.809 29.9462ZM375.572 36.3269C375.063 37.1519 373.984 37.4106 373.159 36.9044C367.113 33.1882 357.893 32.11 350.738 34.2812C349.812 34.5625 348.831 34.0393 348.55 33.1131C348.271 32.185 348.794 31.2082 349.72 30.925C357.891 28.4463 368.05 29.6462 374.995 33.9156C375.82 34.4218 376.079 35.5037 375.572 36.3269ZM372.818 42.4525C372.415 43.1163 371.551 43.3244 370.89 42.9194C365.607 39.6907 358.956 38.9612 351.124 40.75C350.37 40.9225 349.619 40.45 349.447 39.6963C349.273 38.9406 349.745 38.1888 350.5 38.0162C359.071 36.0569 366.423 36.9007 372.353 40.525C373.015 40.9282 373.223 41.7925 372.818 42.4525ZM362.5 10C350.074 10 340 20.0744 340 32.5C340 44.9275 350.074 55 362.5 55C374.928 55 385 44.9275 385 32.5C385 20.0744 374.928 10 362.5 10Z" fill="#1ED760"/>
<path fill-rule="evenodd" clip-rule="evenodd" d="M224.813 81L222 87.865V115.925H231.999V121H237.624L242.937 115.925H251.062L262 105.477V81H224.813ZM258.249 103.687L251.999 109.657H242L236.687 114.732V109.657H228.25V84.582H258.249V103.687ZM251.999 91.448V101.885H248.25V91.448H251.999ZM242 91.448V101.885H238.251V91.448H242Z" fill="#8D47F7"/>
<path d="M336 189C336 184.03 331.97 180 327 180C322.03 180 318 184.03 318 189C318 193.97 322.03 198 327 198C331.97 198 336 193.97 336 189Z" fill="white"/>
<path d="M313 189C313 184.03 308.97 180 304 180C299.03 180 295 184.03 295 189C295 193.97 299.03 198 304 198C308.97 198 313 193.97 313 189Z" fill="white"/>
<path d="M359 188C359 183.03 354.97 179 350 179C345.03 179 341 183.03 341 188C341 192.97 345.03 197 350 197C354.97 197 359 192.97 359 188Z" fill="white"/>
</g>
</svg>
