<svg width="32" height="32" viewBox="0 0 32 32" fill="none" xmlns="http://www.w3.org/2000/svg">
<path d="M13.3677 8.19019L13.6253 8.49974C13.8059 8.76363 13.9315 9.11975 13.9354 9.44129C13.9381 9.67436 13.8998 9.90743 13.8135 10.1249C13.7339 10.3255 13.5472 10.626 13.4323 10.8214L12.8441 11.8403L10.7279 15.5034L10.0206 16.7287C9.88807 16.9522 9.78239 17.1761 9.6091 17.3736C9.28381 17.7445 8.80317 17.9684 8.30962 17.9797C8.23672 17.9812 8.06123 17.962 7.98704 17.9486L7.8064 17.9153C7.91401 18.0444 8.19917 18.1793 8.36123 18.2335C9.04807 18.4631 9.79387 18.2608 10.267 17.7089C10.4194 17.5313 10.5214 17.3157 10.6399 17.1156L11.3473 15.8903L12.5989 13.7234L13.539 12.0983L14.1786 10.9891C14.4013 10.6011 14.5242 10.4182 14.5559 9.95721C14.5593 9.90717 14.5696 9.88357 14.5665 9.82823C14.5323 9.22448 14.2945 8.73035 13.7806 8.38791C13.6704 8.31452 13.4962 8.22024 13.3677 8.19019ZM20.5806 8.30627L20.7904 8.55133C20.9255 8.7319 21.0278 8.93943 21.0853 9.15754C21.1855 9.53713 21.1621 9.90291 21.0135 10.2668L20.6358 10.9504L19.786 12.4207L16.7558 17.6702L14.6986 21.2301L13.8118 22.765C13.6332 23.0726 13.45 23.4541 13.187 23.6914C12.8874 23.9619 12.4599 24.1573 12.0515 24.1579H11.9354C11.7839 24.1577 11.6557 24.1229 11.5096 24.0934C11.5703 24.1711 11.6696 24.229 11.7548 24.2776C11.9803 24.4066 12.2801 24.5058 12.5419 24.5062C12.7539 24.5066 12.8869 24.5082 13.0967 24.449C13.421 24.3576 13.7222 24.1813 13.9446 23.9258C14.1266 23.7166 14.2536 23.4555 14.3924 23.2164L14.8848 22.3651L20.859 12.0209L21.3215 11.2212C21.4329 11.027 21.5594 10.8361 21.6438 10.6279C21.7901 10.2665 21.8159 9.81353 21.6945 9.44129C21.6519 9.31077 21.5938 9.17134 21.5217 9.05435C21.4199 8.88952 21.3215 8.76815 21.1741 8.64162C21.0153 8.50528 20.784 8.36121 20.5806 8.30627ZM24.2709 14.4844L24.4787 14.7295C24.595 14.8848 24.6804 15.0486 24.7417 15.2325C24.8725 15.6251 24.855 16.063 24.6965 16.4449C24.6213 16.626 24.4777 16.8499 24.3777 17.0253L23.7602 18.0959L22.2247 20.7529L21.1896 22.5457L20.7871 23.2422C20.6956 23.3988 20.6346 23.5143 20.5123 23.6549C20.2101 24.0023 19.7184 24.2603 19.2515 24.2611C18.9741 24.2615 18.9607 24.2498 18.6967 24.1966C18.8083 24.3304 19.0849 24.4635 19.2515 24.5191C19.9411 24.7491 20.6967 24.55 21.1684 23.9903C21.3218 23.8081 21.4399 23.5648 21.5613 23.3583L22.2763 22.1201L24.3851 18.4699L24.9731 17.451C25.0959 17.2394 25.272 16.9652 25.3541 16.7416C25.4382 16.5122 25.4608 16.3001 25.458 16.058C25.4532 15.6508 25.2399 15.1832 24.9542 14.8977C24.8812 14.8247 24.7827 14.7483 24.6967 14.6908C24.5818 14.6139 24.4051 14.515 24.2709 14.4844Z" fill="#7F7D7E"/>
<path d="M10 0C4.47716 0 0 4.47715 0 10V22C0 27.5228 4.47715 32 10 32H21.9999C27.5227 32 31.9999 27.5228 31.9999 22V10C31.9999 4.47715 27.5227 0 21.9999 0H10ZM15.3935 3.81782C15.5227 3.8176 15.652 3.80672 15.7812 3.80672H16.3225L16.5419 3.81782L16.9548 3.84245C17.5797 3.8854 18.2029 3.98433 18.8128 4.12892C20.9526 4.63594 22.7918 5.64908 24.3999 7.14667L24.9301 7.68722C26.3471 9.20816 27.3331 11.025 27.8369 13.0399C27.9906 13.654 28.0831 14.2296 28.144 14.8585L28.1806 15.3615L28.1935 15.5808V16.4063L28.1806 16.6256L28.144 17.1415C28.0594 18.0145 27.899 18.8311 27.6384 19.6695C26.8835 22.0968 25.3341 24.2491 23.3032 25.7717C22.2994 26.5241 21.2063 27.0955 20.0257 27.5155C19.3605 27.7522 18.6697 27.9161 17.9741 28.0327C17.6147 28.0931 17.2534 28.1327 16.8903 28.1575L16.7612 28.1693L16.529 28.1822H16.3612L16.1806 28.1951H15.8451L15.6903 28.1827H15.4838L15.2387 28.1693L15.1096 28.1575C14.7722 28.1345 14.4379 28.0977 14.1032 28.0457C13.2292 27.9102 12.344 27.6748 11.5225 27.3464C10.1844 26.8114 8.9441 26.0628 7.87094 25.0974C7.01159 24.3244 6.25598 23.4375 5.64411 22.4555C4.85031 21.1811 4.27431 19.7296 4.00747 18.2507C3.93289 17.8378 3.88283 17.4294 3.84296 17.0125L3.81934 16.7158L3.80644 16.445V15.5421L3.81934 15.2842L3.83108 15.1552C3.85986 14.736 3.90528 14.3189 3.97741 13.9041C4.16708 12.8123 4.4836 11.8279 4.94592 10.8214C5.11844 10.4459 5.32037 10.0793 5.53289 9.72511C7.0583 7.18381 9.50087 5.2406 12.3354 4.35979C13.081 4.12827 13.7936 3.98149 14.5677 3.88592L15.2258 3.8302L15.3935 3.81782V3.81782ZM12.0516 7.74152L11.9225 7.75726C11.7042 7.7886 11.4816 7.86702 11.2903 7.97653C10.8695 8.2172 10.7204 8.50006 10.4922 8.89964L10.0978 9.58323L8.40539 12.5111L7.51998 14.0459L7.01391 14.923C6.88024 15.1531 6.71972 15.3942 6.63327 15.6453C6.55211 15.8811 6.53908 16.0704 6.54192 16.316C6.54346 16.4477 6.58604 16.6418 6.62798 16.7674C6.82837 17.369 7.31249 17.8043 7.93546 17.9308C8.01714 17.9473 8.13688 17.9659 8.21933 17.9669C8.75584 17.9731 9.25133 17.7848 9.60913 17.3736C9.7872 17.1691 9.98023 16.7949 10.1236 16.5482L11.7086 13.8009L12.8939 11.7501L13.4745 10.7441C13.5926 10.5369 13.7292 10.3362 13.8139 10.1121C13.9104 9.85641 13.9256 9.65843 13.9225 9.38976C13.9209 9.25162 13.8802 9.06963 13.8365 8.93833C13.5867 8.18844 12.9129 7.72966 12.129 7.74152H12.0516ZM19.329 7.85761C19.2774 7.85761 19.226 7.86171 19.1751 7.86987L18.9935 7.89901C18.6415 7.97781 18.305 8.17619 18.0682 8.44821C17.8808 8.66347 17.6634 9.08898 17.5095 9.35107L16.6157 10.8988L15.1538 13.4268L11.9816 18.9214L10.7816 20.998C10.5424 21.4151 10.2511 21.8254 10.2451 22.3265C10.2358 23.1192 10.6642 23.801 11.4322 24.0591C11.5516 24.0992 11.733 24.1436 11.858 24.1451H12.1032C12.3997 24.1446 12.7809 23.9982 13.0193 23.826C13.4045 23.5477 13.5139 23.2693 13.742 22.8811L14.6812 21.2559L15.1796 20.3918L16.4312 18.2249L19.4118 13.0657L20.5657 11.0665C20.7512 10.7437 20.9767 10.4203 21.0783 10.0605C21.1269 9.88827 21.1375 9.70937 21.1354 9.53164C21.1344 9.44922 21.1158 9.32953 21.0993 9.24788C20.983 8.67586 20.6002 8.21836 20.0645 7.98942C19.8331 7.8905 19.5792 7.85206 19.329 7.85761V7.85761ZM23.187 14.0358C22.9809 14.0358 22.773 14.0446 22.575 14.1017C22.2788 14.1872 22.0206 14.3323 21.7946 14.5748C21.6215 14.7605 21.538 14.9277 21.4157 15.1423L21.0425 15.7872L20.3429 16.9996L18.7042 19.8372L17.974 21.1012C17.8048 21.3892 17.5776 21.7359 17.4932 22.0556C17.2495 22.9805 17.7861 23.9278 18.7096 24.1911C18.9227 24.2519 19.1483 24.2671 19.3677 24.2461C19.8108 24.2038 20.2366 23.9825 20.5233 23.6421C20.646 23.4965 20.7355 23.3294 20.8294 23.1649L21.1354 22.636L23.8247 17.9798L24.4053 16.9738C24.6213 16.5972 24.7777 16.381 24.8139 15.9291L24.8175 15.8777C24.823 15.8003 24.8221 15.7226 24.815 15.6453V15.6453C24.803 15.5216 24.7901 15.4178 24.7557 15.2971C24.5917 14.7223 24.151 14.2671 23.5741 14.1013C23.4622 14.0692 23.3026 14.0345 23.187 14.0358V14.0358Z" fill="#373536"/>
</svg>
